<svg xmlns="http://www.w3.org/2000/svg" xmlns:xlink="http://www.w3.org/1999/xlink" width="1920" height="924" version="1.1">
<style type="text/css">
.l0{
  fill: #000000;
  stroke: #000000;
  stroke-linecap:round;
  stroke-linejoin:round;
  stroke-width: 1.0833;
}
.l1{
  fill: #00ccee;
  stroke: #00ccee;
  stroke-linecap:round;
  stroke-linejoin:round;
  stroke-width: 1.0833;
}
.l2{
  fill: #4f4f4f; fill-opacity: 0.2;
  stroke: #4f4f4f;
  stroke-linecap:round;
  stroke-linejoin:round;
  stroke-width: 1.0833;
}
.l3{
  fill: #cccccc; fill-opacity: 0.5;
  stroke: #cccccc;
  stroke-linecap:round;
  stroke-linejoin:round;
  stroke-width: 1.0833;
}
.l4{
  fill: #88dd00;
  stroke: #88dd00;
  stroke-linecap:round;
  stroke-linejoin:round;
  stroke-width: 1.0833;
}
.l5{
  fill: #bb2200;
  stroke: #bb2200;
  stroke-linecap:round;
  stroke-linejoin:round;
  stroke-width: 1.0833;
}
.l6{
  fill: #00ccee; fill-opacity: 0.5;
  stroke: #00ccee;
  stroke-linecap:round;
  stroke-linejoin:round;
  stroke-width: 1.0833;
}
.l7{
  fill: #ff0000; fill-opacity: 0.5;
  stroke: #ff0000;
  stroke-linecap:round;
  stroke-linejoin:round;
  stroke-width: 1.0833;
}
.l8{
  fill: #ffff00; fill-opacity: 0.5;
  stroke: #ffff00;
  stroke-linecap:round;
  stroke-linejoin:round;
  stroke-width: 1.0833;
}
.l9{
  fill: #ffffff; fill-opacity: 0.5;
  stroke: #ffffff;
  stroke-linecap:round;
  stroke-linejoin:round;
  stroke-width: 1.0833;
}
.l10{
  fill: #ff00ff;
  stroke: #ff00ff;
  stroke-linecap:round;
  stroke-linejoin:round;
  stroke-width: 1.0833;
}
.l11{
  fill: #00ff00; fill-opacity: 0.5;
  stroke: #00ff00;
  stroke-linecap:round;
  stroke-linejoin:round;
  stroke-width: 1.0833;
}
.l12{
  fill: #0044dd; fill-opacity: 0.5;
  stroke: #0044dd;
  stroke-linecap:round;
  stroke-linejoin:round;
  stroke-width: 1.0833;
}
.l13{
  fill: #aaaa00; fill-opacity: 0.5;
  stroke: #aaaa00;
  stroke-linecap:round;
  stroke-linejoin:round;
  stroke-width: 1.0833;
}
.l14{
  fill: #aaccaa; fill-opacity: 0.2;
  stroke: #aaccaa;
  stroke-linecap:round;
  stroke-linejoin:round;
  stroke-width: 1.0833;
}
.l15{
  fill: #ff7777; fill-opacity: 0.5;
  stroke: #ff7777;
  stroke-linecap:round;
  stroke-linejoin:round;
  stroke-width: 1.0833;
}
.l16{
  fill: #bfff81; fill-opacity: 0.5;
  stroke: #bfff81;
  stroke-linecap:round;
  stroke-linejoin:round;
  stroke-width: 1.0833;
}
.l17{
  fill: #00ffcc; fill-opacity: 0.2;
  stroke: #00ffcc;
  stroke-linecap:round;
  stroke-linejoin:round;
  stroke-width: 1.0833;
}
.l18{
  fill: #ce0097; fill-opacity: 0.5;
  stroke: #ce0097;
  stroke-linecap:round;
  stroke-linejoin:round;
  stroke-width: 1.0833;
}
.l19{
  fill: #d2d46b; fill-opacity: 0.2;
  stroke: #d2d46b;
  stroke-linecap:round;
  stroke-linejoin:round;
  stroke-width: 1.0833;
}
.l20{
  fill: #ef6158; fill-opacity: 0.2;
  stroke: #ef6158;
  stroke-linecap:round;
  stroke-linejoin:round;
  stroke-width: 1.0833;
}
.l21{
  fill: #fdb200; fill-opacity: 0.2;
  stroke: #fdb200;
  stroke-linecap:round;
  stroke-linejoin:round;
  stroke-width: 1.0833;
}
text {font-family: Sans-Serif;}
</style>
<rect class="l0" x="0" y="0" width="1920" height="924"/>
<text fill="#cccccc"  xml:space="preserve" font-size="20.8636" transform="translate(438.41, 331.438)" >VA-VB=62.8mV</text>
<text fill="#00ccee"  xml:space="preserve" font-size="14.0829" transform="translate(853.248, 468.363)" >Iref</text>
<text fill="#00ccee"  xml:space="preserve" font-size="14.0829" transform="translate(845.248, 368.057)" >Vinn</text>
<text fill="#00ccee"  xml:space="preserve" font-size="14.0829" transform="translate(845.248, 307.874)" >Vinp</text>
<text fill="#00ccee"  xml:space="preserve" font-size="14.0829" transform="translate(651.56, 307.874)" >Vinp</text>
<text fill="#00ccee"  xml:space="preserve" font-size="14.0829" transform="translate(651.56, 388.119)" >Vinn</text>
<text fill="#00ccee"  xml:space="preserve" font-size="14.0829" transform="translate(1042.75, 337.966)" >RST</text>
<text fill="#00ccee"  xml:space="preserve" font-size="14.0829" transform="translate(805.125, 137.354)" >Vinp</text>
<text fill="#00ccee"  xml:space="preserve" font-size="14.0829" transform="translate(805.125, 177.477)" >Vinn</text>
<text fill="#00ccee"  xml:space="preserve" font-size="10.4318" transform="translate(887.278, 206.614)" >GND</text>
<text fill="#00ccee"  xml:space="preserve" font-size="14.0829" transform="translate(882.263, 87.2014)" >vindiff</text>
<text fill="#00ccee"  xml:space="preserve" font-size="14.0829" transform="translate(905.401, 608.791)" >Sel</text>
<text fill="#00ccee"  xml:space="preserve" font-size="14.0829" transform="translate(1115.1, 418.21)" >DVDD</text>
<text fill="#00ccee"  xml:space="preserve" font-size="14.0829" transform="translate(1119.1, 438.271)" >DVSS</text>
<text fill="#00ccee"  xml:space="preserve" font-size="14.0829" transform="translate(1130.1, 458.333)" >Vbg</text>
<text fill="#00ccee"  xml:space="preserve" font-size="14.0829" transform="translate(839.248, 448.302)" >AVSS</text>
<text fill="#00ccee"  xml:space="preserve" font-size="14.0829" transform="translate(835.248, 408.18)" >AVDD</text>
<text fill="#00ccee"  xml:space="preserve" font-size="14.0829" transform="translate(604.545, 27.0179)" >AVDD</text>
<text fill="#00ccee"  xml:space="preserve" font-size="14.0829" transform="translate(1116.1, 478.394)" >AVDD</text>
<text fill="#00ccee"  xml:space="preserve" font-size="17.2125" transform="translate(498.437, 659.758)" >AVDD</text>
<text fill="#00ccee"  xml:space="preserve" font-size="17.2125" transform="translate(649.052, 710.538)" >por</text>
<text fill="#00ccee"  xml:space="preserve" font-size="17.2125" transform="translate(498.437, 689.85)" >AVSS</text>
<text fill="#00ccee"  xml:space="preserve" font-size="17.2125" transform="translate(498.437, 629.667)" >DVDD</text>
<text fill="#00ccee"  xml:space="preserve" font-size="14.0829" transform="translate(834.248, 428.241)" >DVDD</text>
<text fill="#00ccee"  xml:space="preserve" font-size="17.2125" transform="translate(649.052, 740.63)" >porb</text>
<text fill="#00ccee"  xml:space="preserve" font-size="14.0829" transform="translate(1012.66, 558.638)" >DVDD</text>
<text fill="#00ccee"  xml:space="preserve" font-size="14.0829" transform="translate(925.523, 558.638)" >AVDD</text>
<text fill="#00ccee"  xml:space="preserve" font-size="17.2125" transform="translate(445.786, 750.66)" >Vbg</text>
<text fill="#00ccee"  xml:space="preserve" font-size="14.0829" transform="translate(1363.73, 327.935)" >por</text>
<text fill="#00ccee"  xml:space="preserve" font-size="14.0829" transform="translate(1363.73, 347.996)" >porb</text>
<text fill="#00ccee"  xml:space="preserve" font-size="14.0829" transform="translate(1363.73, 368.057)" >porb_h</text>
<text fill="#00ccee"  xml:space="preserve" font-size="17.2125" transform="translate(649.052, 770.722)" >porb_h</text>
<text fill="#00ccee"  xml:space="preserve" font-size="17.2125" transform="translate(498.437, 719.942)" >DVSS</text>
<text fill="#00ccee"  xml:space="preserve" font-size="14.0829" transform="translate(949.584, 668.975)" >AVSS</text>
<text fill="#00ccee"  xml:space="preserve" font-size="14.0829" transform="translate(588.483, 468.363)" >AVSS</text>
<text fill="#00ccee"  xml:space="preserve" font-size="14.0829" transform="translate(681.652, 117.293)" >AVSS</text>
<text fill="#00ccee"  xml:space="preserve" font-size="14.0829" transform="translate(1274.53, 438.271)" >Iref</text>
<text fill="#00ccee"  xml:space="preserve" font-size="14.0829" transform="translate(932.554, 137.354)" >vindiff</text>
<text fill="#cccccc"  xml:space="preserve" font-size="20.8636" transform="translate(764.404, 898.165)" >x1.         sky130_ef_ip__bgrref_por.sch</text>
<text fill="#cccccc"  xml:space="preserve" font-size="20.8636" transform="translate(764.404, 868.073)" >Stephen Wu</text>
<text fill="#cccccc"  xml:space="preserve" font-size="20.8636" transform="translate(1325.8, 868.073)" >2024-03-23  10:41:00</text>
<text fill="#cccccc"  xml:space="preserve" font-size="52.159" transform="translate(533.701, 896.49)" >SCHEM</text>
<text fill="#ff7777"  xml:space="preserve" font-size="10.4318" transform="translate(705.878, 86.673)" >? </text>
<text fill="#ff7777"  xml:space="preserve" font-size="10.4318" transform="translate(695.878, 74.1348)" >W=</text>
<text fill="#ff7777"  xml:space="preserve" font-size="10.4318" transform="translate(705.878, 36.5202)" >? </text>
<text fill="#ff7777"  xml:space="preserve" font-size="10.4318" transform="translate(688.878, 23.982)" >gm=</text>
<text fill="#cccccc"  xml:space="preserve" font-size="10.4318" transform="translate(618.006, 101.293)" >M1</text>
<text fill="#ff0000"  xml:space="preserve" font-size="7.82385" transform="translate(651.56, 146.57)" >S</text>
<text fill="#ff0000"  xml:space="preserve" font-size="7.82385" transform="translate(651.56, 102.489)" >D</text>
<text fill="#ff0000"  xml:space="preserve" font-size="7.82385" transform="translate(649.052, 118.986)" >B</text>
<text fill="#ff0000"  xml:space="preserve" font-size="7.82385" transform="translate(612.961, 118.986)" >G</text>
<text fill="#cccccc"  xml:space="preserve" font-size="10.4318" transform="translate(659.083, 110.643)" >nfet_05v0_nvt</text>
<text fill="#aaaa00"  xml:space="preserve" font-size="10.4318" transform="translate(660.337, 145.177)" >2 x 1 / 0.9</text>
<text fill="#aaaa00"  xml:space="preserve" font-size="10.4318" transform="translate(660.337, 132.639)" >nf=2</text>
<text fill="#cccccc"  xml:space="preserve" font-size="5.2159" transform="translate(598.915, 136.679)" >W</text>
<text fill="#cccccc"  xml:space="preserve" font-size="10.4318" transform="translate(664.098, 172.761)" >Vr1</text>
<text fill="#cccccc"  xml:space="preserve" font-size="10.4318" transform="translate(899.817, 176.522)" >1</text>
<text fill="#cccccc"  xml:space="preserve" font-size="10.4318" transform="translate(899.817, 153.954)" >E1</text>
<text fill="#cccccc"  xml:space="preserve" font-size="15.6477" transform="translate(913.358, 290.592)" >comparator</text>
<text fill="#cccccc"  xml:space="preserve" font-size="10.4318" transform="translate(975.046, 319.96)" >x1</text>
<text fill="#cccccc"  xml:space="preserve" font-size="10.4318" transform="translate(904.832, 373.122)" >-</text>
<text fill="#cccccc"  xml:space="preserve" font-size="10.4318" transform="translate(904.832, 322.969)" >+</text>
<text fill="#cccccc"  xml:space="preserve" font-size="10.4318" transform="translate(972.107, 348.045)" >OUT</text>
<text fill="#cccccc"  xml:space="preserve" font-size="10.4318" transform="translate(904.832, 418.259)" >AVDD</text>
<text fill="#cccccc"  xml:space="preserve" font-size="10.4318" transform="translate(904.832, 458.381)" >VSS</text>
<text fill="#cccccc"  xml:space="preserve" font-size="10.4318" transform="translate(904.832, 474.502)" >Iref</text>
<text fill="#cccccc"  xml:space="preserve" font-size="10.4318" transform="translate(904.832, 438.32)" >DVDD</text>
<text fill="#cccccc"  xml:space="preserve" font-size="10.4318" transform="translate(904.832, 494.563)" >Sel</text>
<text fill="#ff0000"  xml:space="preserve" font-size="7.82385" transform="translate(629.006, 417.396)" >B</text>
<text fill="#cccccc"  xml:space="preserve" font-size="10.4318" transform="translate(664.098, 404.718)" >R1</text>
<text fill="#aaaa00"  xml:space="preserve" font-size="10.4318" transform="translate(664.098, 446.094)" >1 * 0.35 / 235</text>
<text fill="#cccccc"  xml:space="preserve" font-size="10.4318" transform="translate(664.098, 418.51)" >res_xhigh_po_0p35</text>
<text fill="#aaaa00"  xml:space="preserve" font-size="10.4318" transform="translate(664.098, 432.302)" >R=1.343e+06</text>
<text fill="#ff0000"  xml:space="preserve" font-size="7.82385" transform="translate(629.006, 337.151)" >B</text>
<text fill="#cccccc"  xml:space="preserve" font-size="10.4318" transform="translate(664.098, 324.473)" >R10</text>
<text fill="#aaaa00"  xml:space="preserve" font-size="10.4318" transform="translate(664.098, 365.849)" >1 * 0.35 / 10</text>
<text fill="#cccccc"  xml:space="preserve" font-size="10.4318" transform="translate(664.098, 338.265)" >res_xhigh_po_0p35</text>
<text fill="#aaaa00"  xml:space="preserve" font-size="10.4318" transform="translate(664.098, 352.057)" >R=5.714e+04</text>
<text fill="#ff0000"  xml:space="preserve" font-size="7.82385" transform="translate(629.006, 256.907)" >B</text>
<text fill="#cccccc"  xml:space="preserve" font-size="10.4318" transform="translate(664.098, 244.229)" >R12</text>
<text fill="#aaaa00"  xml:space="preserve" font-size="10.4318" transform="translate(664.098, 285.605)" >1 * 0.35 / 120</text>
<text fill="#cccccc"  xml:space="preserve" font-size="10.4318" transform="translate(664.098, 258.021)" >res_xhigh_po_0p35</text>
<text fill="#aaaa00"  xml:space="preserve" font-size="10.4318" transform="translate(664.098, 271.813)" >R=6.857e+05</text>
<text fill="#cccccc"  xml:space="preserve" font-size="15.6477" transform="translate(947.734, 581.478)" >levelShifter</text>
<text fill="#cccccc"  xml:space="preserve" font-size="10.4318" transform="translate(962.046, 640.938)" >x3</text>
<text fill="#cccccc"  xml:space="preserve" font-size="10.4318" transform="translate(996.199, 598.81)" >VCCH</text>
<text fill="#cccccc"  xml:space="preserve" font-size="10.4318" transform="translate(984.138, 638.932)" >VSS</text>
<text fill="#cccccc"  xml:space="preserve" font-size="10.4318" transform="translate(956.076, 598.81)" >VCCH</text>
<text fill="#cccccc"  xml:space="preserve" font-size="15.6477" transform="translate(1194.21, 310.653)" >delayPulse</text>
<text fill="#cccccc"  xml:space="preserve" font-size="10.4318" transform="translate(1235.84, 400.204)" >x2</text>
<text fill="#cccccc"  xml:space="preserve" font-size="10.4318" transform="translate(1185.69, 428.29)" >VCCL</text>
<text fill="#cccccc"  xml:space="preserve" font-size="10.4318" transform="translate(1185.69, 448.351)" >VSS</text>
<text fill="#cccccc"  xml:space="preserve" font-size="10.4318" transform="translate(1185.69, 468.412)" >Vbg</text>
<text fill="#cccccc"  xml:space="preserve" font-size="10.4318" transform="translate(1185.69, 488.473)" >VCCH</text>
<text fill="#cccccc"  xml:space="preserve" font-size="10.4318" transform="translate(1316.09, 338.015)" >por</text>
<text fill="#cccccc"  xml:space="preserve" font-size="10.4318" transform="translate(1316.09, 358.076)" >porb</text>
<text fill="#cccccc"  xml:space="preserve" font-size="10.4318" transform="translate(1306.05, 378.137)" >porb_h</text>
<text fill="#cccccc"  xml:space="preserve" font-size="10.4318" transform="translate(1285.99, 398.198)" >Iref</text>
<text fill="#88dd00"  xml:space="preserve" font-size="7.82385" transform="translate(984.361, 144.69)" >NC</text>
<path class="l4" d="M649.052 91.821L649.052 104.359"/>
<path class="l4" d="M649.052 139.466L649.052 152.004"/>
<path class="l4" d="M636.514 104.359L649.052 104.359"/>
<path class="l4" d="M636.514 139.466L644.037 139.466"/>
<path class="l4" d="M608.93 121.913L626.483 121.913"/>
<path class="l4" d="M636.514 99.3439L636.514 109.374"/>
<path class="l4" d="M636.514 134.451L636.514 144.482"/>
<path class="l4" d="M636.514 116.897L636.514 126.928"/>
<path class="l4" d="M644.037 136.959L649.052 139.466L644.037 141.974L644.037 136.959"/>
<path class="l4" style="fill:none;" d="M626.483 136.959L626.483 106.867L631.499 106.867L631.499 136.959L626.483 136.959"/>
<path class="l4" d="M649.052 152.004L649.052 212.188"/>
<path class="l4" d="M641.529 182.096L649.052 192.127"/>
<path class="l4" d="M649.052 192.127L656.575 182.096"/>
<path class="l4" d="M882.263 139.466L887.278 139.466"/>
<path class="l4" d="M884.771 136.959L884.771 141.974"/>
<path class="l4" d="M879.755 131.943L879.755 192.127"/>
<path class="l4" d="M859.694 162.035L879.755 141.974"/>
<path class="l4" d="M859.694 162.035L879.755 182.096"/>
<path class="l4" d="M879.755 182.096L899.817 162.035"/>
<path class="l4" d="M879.755 141.974L899.817 162.035"/>
<path class="l4" d="M839.633 141.974L844.648 141.974"/>
<path class="l4" d="M849.664 141.974L854.679 141.974"/>
<path class="l4" d="M859.694 141.974L864.71 141.974"/>
<path class="l4" d="M839.633 182.096L844.648 182.096"/>
<path class="l4" d="M849.664 182.096L854.679 182.096"/>
<path class="l4" d="M859.694 182.096L864.71 182.096"/>
<path class="l4" d="M879.755 192.127L879.755 204.665"/>
<path class="l4" d="M874.74 204.665L884.771 204.665"/>
<path class="l4" d="M879.755 209.68L884.771 204.665"/>
<path class="l4" d="M874.74 204.665L879.755 209.68"/>
<path class="l4" d="M899.817 292.432L1020.18 342.585"/>
<path class="l4" d="M899.817 392.738L1020.18 342.585"/>
<path class="l4" d="M899.817 292.432L899.817 493.044"/>
<path class="l4" d="M879.755 472.983L899.817 472.983"/>
<path class="l4" d="M879.755 372.677L899.817 372.677"/>
<path class="l4" d="M879.755 312.494L899.817 312.494"/>
<path class="l4" d="M1020.18 342.585L1040.24 342.585"/>
<path class="l4" d="M879.755 452.922L899.817 452.922"/>
<path class="l4" d="M879.755 412.799L899.817 412.799"/>
<path class="l4" d="M879.755 432.86L899.817 432.86"/>
<path class="l4" d="M879.755 493.044L899.817 493.044"/>
<path class="l4" d="M929.908 322.524L949.969 322.524"/>
<path class="l4" d="M929.908 322.524L929.908 362.646"/>
<path class="l4" d="M939.939 322.524L939.939 362.646"/>
<path class="l4" d="M919.878 362.646L939.939 362.646"/>
<path class="l4" d="M649.052 442.891L649.052 452.922"/>
<path class="l4" d="M649.052 442.891L656.575 440.383"/>
<path class="l4" d="M641.529 435.368L656.575 440.383"/>
<path class="l4" d="M641.529 435.368L656.575 430.353"/>
<path class="l4" d="M641.529 425.338L656.575 430.353"/>
<path class="l4" d="M641.529 425.338L656.575 420.322"/>
<path class="l4" d="M641.529 415.307L656.575 420.322"/>
<path class="l4" d="M641.529 415.307L656.575 410.292"/>
<path class="l4" d="M641.529 405.276L656.575 410.292"/>
<path class="l4" d="M641.529 405.276L649.052 402.769"/>
<path class="l4" d="M649.052 392.738L649.052 402.769"/>
<path class="l4" d="M649.052 362.646L649.052 372.677"/>
<path class="l4" d="M649.052 362.646L656.575 360.139"/>
<path class="l4" d="M641.529 355.124L656.575 360.139"/>
<path class="l4" d="M641.529 355.124L656.575 350.108"/>
<path class="l4" d="M641.529 345.093L656.575 350.108"/>
<path class="l4" d="M641.529 345.093L656.575 340.078"/>
<path class="l4" d="M641.529 335.062L656.575 340.078"/>
<path class="l4" d="M641.529 335.062L656.575 330.047"/>
<path class="l4" d="M641.529 325.032L656.575 330.047"/>
<path class="l4" d="M641.529 325.032L649.052 322.524"/>
<path class="l4" d="M649.052 312.494L649.052 322.524"/>
<path class="l4" d="M649.052 282.402L649.052 292.432"/>
<path class="l4" d="M649.052 282.402L656.575 279.894"/>
<path class="l4" d="M641.529 274.879L656.575 279.894"/>
<path class="l4" d="M641.529 274.879L656.575 269.864"/>
<path class="l4" d="M641.529 264.848L656.575 269.864"/>
<path class="l4" d="M641.529 264.848L656.575 259.833"/>
<path class="l4" d="M641.529 254.818L656.575 259.833"/>
<path class="l4" d="M641.529 254.818L656.575 249.803"/>
<path class="l4" d="M641.529 244.787L656.575 249.803"/>
<path class="l4" d="M641.529 244.787L649.052 242.28"/>
<path class="l4" d="M649.052 232.249L649.052 242.28"/>
<path class="l4" d="M1030.21 613.411L1050.28 613.411"/>
<path class="l4" d="M929.908 613.411L949.969 613.411"/>
<path class="l4" d="M1010.15 563.258L1010.15 583.319"/>
<path class="l4" d="M990.092 643.503L990.092 663.564"/>
<path class="l4" d="M949.969 583.319L1030.21 583.319"/>
<path class="l4" d="M949.969 643.503L1030.21 643.503"/>
<path class="l4" d="M949.969 583.319L949.969 643.503"/>
<path class="l4" d="M1030.21 583.319L1030.21 643.503"/>
<path class="l4" d="M980.061 613.411L1030.21 613.411"/>
<path class="l4" d="M949.969 593.35L980.061 613.411"/>
<path class="l4" d="M949.969 593.35L960 593.35"/>
<path class="l4" d="M949.969 593.35L960 593.35"/>
<path class="l4" d="M970.031 563.258L970.031 583.319"/>
<path class="l4" d="M1160.61 342.585L1180.67 342.585"/>
<path class="l4" d="M1341.16 332.555L1361.22 332.555"/>
<path class="l4" d="M1160.61 422.83L1180.67 422.83"/>
<path class="l4" d="M1180.67 312.494L1180.67 432.86"/>
<path class="l4" d="M1180.67 412.799L1180.67 483.013"/>
<path class="l4" d="M1160.61 442.891L1180.67 442.891"/>
<path class="l4" d="M1160.61 462.952L1180.67 462.952"/>
<path class="l4" d="M1180.67 312.494L1341.16 312.494"/>
<path class="l4" d="M1180.67 402.769L1341.16 402.769"/>
<path class="l4" d="M1341.16 312.494L1341.16 402.769"/>
<path class="l4" d="M1190.7 332.555L1220.79 332.555"/>
<path class="l4" d="M1220.79 322.524L1220.79 342.585"/>
<path class="l4" d="M1220.79 322.524L1240.86 332.555"/>
<path class="l4" d="M1220.79 342.585L1240.86 332.555"/>
<path class="l4" d="M1190.7 372.677L1220.79 372.677"/>
<path class="l4" d="M1220.79 362.646L1220.79 382.708"/>
<path class="l4" d="M1220.79 362.646L1240.86 372.677"/>
<path class="l4" d="M1220.79 382.708L1240.86 372.677"/>
<path class="l4" d="M1240.86 332.555L1270.95 332.555"/>
<path class="l4" d="M1240.86 372.677L1270.95 372.677"/>
<path class="l4" d="M1270.95 322.524L1270.95 382.708"/>
<path class="l4" d="M1270.95 322.524L1291.01 322.524"/>
<path class="l4" d="M1291.01 322.524L1291.01 382.708"/>
<path class="l4" d="M1270.95 382.708L1291.01 382.708"/>
<path class="l4" d="M1291.01 352.616L1301.04 352.616"/>
<path class="l4" d="M1160.61 483.013L1180.67 483.013"/>
<path class="l4" d="M1341.16 352.616L1361.22 352.616"/>
<path class="l4" d="M1341.16 372.677L1361.22 372.677"/>
<path class="l4" d="M1301.04 402.769L1301.04 422.83"/>
<path class="l4" d="M980.061 141.974L983.823 141.974"/>
<path class="l5" d="M878.502 471.729L881.009 471.729L881.009 474.237L878.502 474.237L878.502 471.729z"/>
<path class="l5" d="M878.502 371.423L881.009 371.423L881.009 373.931L878.502 373.931L878.502 371.423z"/>
<path class="l5" d="M878.502 311.24L881.009 311.24L881.009 313.747L878.502 313.747L878.502 311.24z"/>
<path class="l5" d="M518.655 859.16L518.341 859.473L518.028 859.787L517.714 860.1L517.401 860.414L517.087 860.727L516.774 861.041L516.461 861.354L516.147 861.668L515.834 861.981L515.52 862.294L515.207 862.608L514.893 862.921L514.58 863.235L514.266 863.548L513.953 863.862L513.639 864.175L513.326 864.489L513.013 864.802L512.699 865.116L512.386 865.429L512.072 865.742L511.759 866.056L511.445 866.369L511.132 866.683L510.818 866.996L510.505 867.31L510.191 867.623L509.878 867.937L509.565 868.25L509.251 868.564L508.938 868.877L508.624 869.19L508.624 869.19L508.321 869.504L508.036 869.817L507.772 870.131L507.527 870.444L507.302 870.758L507.096 871.071L506.91 871.385L506.743 871.698L506.597 872.012L506.469 872.325L506.361 872.638L506.273 872.952L506.205 873.265L506.156 873.579L506.126 873.892L506.117 874.206L506.126 874.519L506.156 874.833L506.205 875.146L506.273 875.46L506.361 875.773L506.469 876.086L506.597 876.4L506.743 876.713L506.91 877.027L507.096 877.34L507.302 877.654L507.527 877.967L507.772 878.281L508.036 878.594L508.321 878.908L508.624 879.221L508.624 879.221L508.939 879.536L509.256 879.853L509.576 880.172L509.898 880.494L510.222 880.819L510.549 881.146L510.878 881.475L511.21 881.807L511.544 882.141L511.881 882.478L512.22 882.817L512.562 883.159L512.906 883.503L513.253 883.849L513.602 884.198L513.953 884.55L514.307 884.904L514.663 885.26L515.022 885.619L515.383 885.98L515.747 886.344L516.113 886.71L516.481 887.078L516.852 887.449L517.226 887.823L517.602 888.199L517.98 888.577L518.361 888.958L518.744 889.341L519.13 889.727L519.518 890.115L519.909 890.505L519.909 890.505L520.298 890.895L520.682 891.279L521.062 891.659L521.437 892.034L521.806 892.403L522.171 892.768L522.531 893.128L522.886 893.483L523.237 893.833L523.582 894.179L523.922 894.519L524.258 894.855L524.588 895.185L524.914 895.511L525.235 895.832L525.551 896.148L525.862 896.459L526.168 896.765L526.469 897.066L526.765 897.362L527.057 897.654L527.343 897.94L527.625 898.222L527.902 898.499L528.174 898.77L528.44 899.037L528.702 899.299L528.96 899.556L529.212 899.809L529.459 900.056L529.702 900.298L529.939 900.536L529.939 900.536L530.167 900.767L530.38 900.991L530.578 901.208L530.762 901.418L530.931 901.62L531.085 901.814L531.225 902.002L531.35 902.182L531.46 902.354L531.555 902.52L531.636 902.678L531.702 902.828L531.754 902.971L531.791 903.107L531.813 903.236L531.82 903.357L531.813 903.471L531.791 903.577L531.754 903.677L531.702 903.768L531.636 903.853L531.555 903.93L531.46 904L531.35 904.062L531.225 904.117L531.085 904.165L530.931 904.206L530.762 904.239L530.578 904.264L530.38 904.283L530.167 904.294L529.939 904.297L529.939 904.297L529.704 904.297L529.469 904.297L529.234 904.297L528.999 904.297L528.764 904.297L528.529 904.297L528.294 904.297L528.058 904.297L527.823 904.297L527.588 904.297L527.353 904.297L527.118 904.297L526.883 904.297L526.648 904.297L526.413 904.297L526.178 904.297L525.943 904.297L525.708 904.297L525.472 904.297L525.237 904.297L525.002 904.297L524.767 904.297L524.532 904.297L524.297 904.297L524.062 904.297L523.827 904.297L523.592 904.297L523.357 904.297L523.122 904.297L522.886 904.297L522.651 904.297L522.416 904.297L522.416 904.297L522.182 904.297L521.951 904.297L521.722 904.297L521.495 904.297L521.271 904.297L521.05 904.297L520.831 904.297L520.614 904.297L520.4 904.297L520.188 904.297L519.978 904.297L519.771 904.297L519.567 904.297L519.365 904.297L519.165 904.297L518.968 904.297L518.774 904.297L518.581 904.297L518.392 904.297L518.204 904.297L518.019 904.297L517.837 904.297L517.657 904.297L517.479 904.297L517.304 904.297L517.132 904.297L516.961 904.297L516.794 904.297L516.628 904.297L516.465 904.297L516.305 904.297L516.147 904.297L516.147 904.297L515.99 904.295L515.834 904.288L515.677 904.275L515.52 904.258L515.363 904.236L515.207 904.209L515.05 904.177L514.893 904.141L514.737 904.099L514.58 904.053L514.423 904.001L514.266 903.945L514.11 903.884L513.953 903.817L513.796 903.746L513.639 903.671L513.483 903.59L513.326 903.504L513.169 903.413L513.013 903.318L512.856 903.217L512.699 903.112L512.542 903.002L512.386 902.887L512.229 902.767L512.072 902.642L511.915 902.512L511.759 902.378L511.602 902.238L511.445 902.093L511.289 901.944L511.132 901.79L511.132 901.79L510.975 901.633L510.818 901.476L510.662 901.32L510.505 901.163L510.348 901.006L510.191 900.849L510.035 900.693L509.878 900.536L509.721 900.379L509.565 900.223L509.408 900.066L509.251 899.909L509.094 899.752L508.938 899.596L508.781 899.439L508.624 899.282L508.467 899.125L508.311 898.969L508.154 898.812L507.997 898.655L507.841 898.499L507.684 898.342L507.527 898.185L507.37 898.028L507.214 897.872L507.057 897.715L506.9 897.558L506.743 897.401L506.587 897.245L506.43 897.088L506.273 896.931L506.117 896.775L506.117 896.775L505.957 896.615L505.793 896.451L505.624 896.282L505.45 896.108L505.272 895.93L505.088 895.746L504.899 895.557L504.706 895.364L504.508 895.166L504.304 894.962L504.096 894.754L503.883 894.541L503.665 894.323L503.442 894.1L503.215 893.873L502.982 893.64L502.744 893.402L502.502 893.16L502.255 892.913L502.002 892.66L501.745 892.403L501.483 892.141L501.216 891.874L500.945 891.603L500.668 891.326L500.386 891.044L500.1 890.758L499.808 890.466L499.512 890.17L499.211 889.869L498.905 889.563L498.594 889.252L498.594 889.252L498.28 888.948L497.967 888.664L497.653 888.399L497.34 888.154L497.026 887.929L496.713 887.723L496.399 887.537L496.086 887.371L495.773 887.224L495.459 887.097L495.146 886.989L494.832 886.901L494.519 886.832L494.205 886.783L493.892 886.754L493.578 886.744L493.265 886.754L492.951 886.783L492.638 886.832L492.325 886.901L492.011 886.989L491.698 887.097L491.384 887.224L491.071 887.371L490.757 887.537L490.444 887.723L490.13 887.929L489.817 888.154L489.503 888.399L489.19 888.664L488.877 888.948L488.563 889.252L488.563 889.252L488.252 889.563L487.946 889.869L487.645 890.17L487.348 890.466L487.057 890.758L486.77 891.044L486.489 891.326L486.212 891.603L485.94 891.874L485.673 892.141L485.411 892.403L485.154 892.66L484.902 892.913L484.655 893.16L484.412 893.402L484.175 893.64L483.942 893.873L483.714 894.1L483.491 894.323L483.273 894.541L483.06 894.754L482.852 894.962L482.649 895.166L482.451 895.364L482.257 895.557L482.069 895.746L481.885 895.93L481.706 896.108L481.532 896.282L481.363 896.451L481.199 896.615L481.04 896.775L481.04 896.775L480.883 896.931L480.727 897.088L480.57 897.245L480.413 897.401L480.256 897.558L480.1 897.715L479.943 897.872L479.786 898.028L479.63 898.185L479.473 898.342L479.316 898.499L479.159 898.655L479.003 898.812L478.846 898.969L478.689 899.125L478.532 899.282L478.376 899.439L478.219 899.596L478.062 899.752L477.906 899.909L477.749 900.066L477.592 900.223L477.435 900.379L477.279 900.536L477.122 900.693L476.965 900.849L476.808 901.006L476.652 901.163L476.495 901.32L476.338 901.476L476.182 901.633L476.025 901.79L476.025 901.79L475.868 901.944L475.711 902.093L475.555 902.238L475.398 902.378L475.241 902.512L475.084 902.642L474.928 902.767L474.771 902.887L474.614 903.002L474.458 903.112L474.301 903.217L474.144 903.318L473.987 903.413L473.831 903.504L473.674 903.59L473.517 903.671L473.36 903.746L473.204 903.817L473.047 903.884L472.89 903.945L472.734 904.001L472.577 904.053L472.42 904.099L472.263 904.141L472.107 904.177L471.95 904.209L471.793 904.236L471.636 904.258L471.48 904.275L471.323 904.288L471.166 904.295L471.01 904.297L471.01 904.297L470.852 904.297L470.691 904.297L470.528 904.297L470.363 904.297L470.195 904.297L470.025 904.297L469.852 904.297L469.677 904.297L469.5 904.297L469.32 904.297L469.137 904.297L468.952 904.297L468.765 904.297L468.575 904.297L468.383 904.297L468.188 904.297L467.991 904.297L467.792 904.297L467.59 904.297L467.385 904.297L467.178 904.297L466.969 904.297L466.757 904.297L466.543 904.297L466.326 904.297L466.107 904.297L465.885 904.297L465.661 904.297L465.435 904.297L465.206 904.297L464.974 904.297L464.74 904.297L464.74 904.297L464.505 904.297L464.27 904.297L464.035 904.297L463.8 904.297L463.565 904.297L463.33 904.297L463.095 904.297L462.86 904.297L462.625 904.297L462.39 904.297L462.154 904.297L461.919 904.297L461.684 904.297L461.449 904.297L461.214 904.297L460.979 904.297L460.744 904.297L460.509 904.297L460.274 904.297L460.039 904.297L459.804 904.297L459.568 904.297L459.333 904.297L459.098 904.297L458.863 904.297L458.628 904.297L458.393 904.297L458.158 904.297L457.923 904.297L457.688 904.297L457.453 904.297L457.218 904.297L457.218 904.297L456.99 904.294L456.777 904.283L456.578 904.264L456.395 904.239L456.226 904.206L456.071 904.165L455.932 904.117L455.807 904.062L455.697 904L455.601 903.93L455.52 903.853L455.454 903.768L455.403 903.677L455.366 903.577L455.344 903.471L455.337 903.357L455.344 903.236L455.366 903.107L455.403 902.971L455.454 902.828L455.52 902.678L455.601 902.52L455.697 902.354L455.807 902.182L455.932 902.002L456.071 901.814L456.226 901.62L456.395 901.418L456.578 901.208L456.777 900.991L456.99 900.767L457.218 900.536L457.218 900.536L457.455 900.298L457.697 900.056L457.945 899.809L458.197 899.556L458.454 899.299L458.716 899.037L458.983 898.77L459.255 898.499L459.532 898.222L459.813 897.94L460.1 897.654L460.391 897.362L460.688 897.066L460.989 896.765L461.295 896.459L461.606 896.148L461.922 895.832L462.243 895.511L462.568 895.185L462.899 894.855L463.234 894.519L463.575 894.179L463.92 893.833L464.27 893.483L464.625 893.128L464.985 892.768L465.35 892.403L465.72 892.034L466.095 891.659L466.474 891.279L466.859 890.895L467.248 890.505L467.248 890.505L467.639 890.115L468.027 889.727L468.413 889.341L468.796 888.958L469.177 888.577L469.555 888.199L469.931 887.823L470.304 887.449L470.675 887.078L471.044 886.71L471.41 886.344L471.774 885.98L472.135 885.619L472.494 885.26L472.85 884.904L473.204 884.55L473.555 884.198L473.904 883.849L474.251 883.503L474.595 883.159L474.936 882.817L475.275 882.478L475.612 882.141L475.946 881.807L476.278 881.475L476.608 881.146L476.935 880.819L477.259 880.494L477.581 880.172L477.901 879.853L478.218 879.536L478.532 879.221L478.532 879.221L478.836 878.908L479.12 878.594L479.385 878.281L479.63 877.967L479.855 877.654L480.061 877.34L480.247 877.027L480.413 876.713L480.56 876.4L480.687 876.086L480.795 875.773L480.883 875.46L480.952 875.146L481.001 874.833L481.03 874.519L481.04 874.206L481.03 873.892L481.001 873.579L480.952 873.265L480.883 872.952L480.795 872.638L480.687 872.325L480.56 872.012L480.413 871.698L480.247 871.385L480.061 871.071L479.855 870.758L479.63 870.444L479.385 870.131L479.12 869.817L478.836 869.504L478.532 869.19L478.532 869.19L478.218 868.876L477.901 868.559L477.581 868.239L477.259 867.917L476.935 867.593L476.608 867.266L476.278 866.936L475.946 866.604L475.612 866.27L475.275 865.933L474.936 865.594L474.595 865.253L474.251 864.909L473.904 864.562L473.555 864.213L473.204 863.862L472.85 863.508L472.494 863.152L472.135 862.793L471.774 862.432L471.41 862.068L471.044 861.702L470.675 861.333L470.304 860.962L469.931 860.589L469.555 860.213L469.177 859.835L468.796 859.454L468.413 859.07L468.027 858.685L467.639 858.297L467.248 857.906L467.248 857.906L466.859 857.517L466.474 857.132L466.095 856.753L465.72 856.378L465.35 856.008L464.985 855.643L464.625 855.283L464.27 854.928L463.92 854.578L463.575 854.233L463.234 853.892L462.899 853.557L462.568 853.226L462.243 852.901L461.922 852.58L461.606 852.264L461.295 851.953L460.989 851.647L460.688 851.346L460.391 851.049L460.1 850.758L459.813 850.471L459.532 850.19L459.255 849.913L458.983 849.641L458.716 849.374L458.454 849.112L458.197 848.855L457.945 848.603L457.697 848.355L457.455 848.113L457.218 847.875L457.218 847.875L456.99 847.644L456.777 847.42L456.578 847.203L456.395 846.994L456.226 846.792L456.071 846.597L455.932 846.41L455.807 846.23L455.697 846.057L455.601 845.892L455.52 845.734L455.454 845.583L455.403 845.44L455.366 845.304L455.344 845.176L455.337 845.054L455.344 844.941L455.366 844.834L455.403 844.735L455.454 844.643L455.52 844.558L455.601 844.481L455.697 844.412L455.807 844.349L455.932 844.294L456.071 844.246L456.226 844.206L456.395 844.173L456.578 844.147L456.777 844.129L456.99 844.118L457.218 844.114L457.218 844.114L457.453 844.114L457.688 844.114L457.923 844.114L458.158 844.114L458.393 844.114L458.628 844.114L458.863 844.114L459.098 844.114L459.333 844.114L459.568 844.114L459.804 844.114L460.039 844.114L460.274 844.114L460.509 844.114L460.744 844.114L460.979 844.114L461.214 844.114L461.449 844.114L461.684 844.114L461.919 844.114L462.154 844.114L462.39 844.114L462.625 844.114L462.86 844.114L463.095 844.114L463.33 844.114L463.565 844.114L463.8 844.114L464.035 844.114L464.27 844.114L464.505 844.114L464.74 844.114L464.74 844.114L464.974 844.114L465.206 844.114L465.435 844.114L465.661 844.114L465.885 844.114L466.107 844.114L466.326 844.114L466.543 844.114L466.757 844.114L466.969 844.114L467.178 844.114L467.385 844.114L467.59 844.114L467.792 844.114L467.991 844.114L468.188 844.114L468.383 844.114L468.575 844.114L468.765 844.114L468.952 844.114L469.137 844.114L469.32 844.114L469.5 844.114L469.677 844.114L469.852 844.114L470.025 844.114L470.195 844.114L470.363 844.114L470.528 844.114L470.691 844.114L470.852 844.114L471.01 844.114L471.01 844.114L471.166 844.116L471.323 844.124L471.48 844.136L471.636 844.153L471.793 844.175L471.95 844.202L472.107 844.234L472.263 844.271L472.42 844.312L472.577 844.359L472.734 844.41L472.89 844.467L473.047 844.528L473.204 844.594L473.36 844.665L473.517 844.741L473.674 844.822L473.831 844.907L473.987 844.998L474.144 845.094L474.301 845.194L474.458 845.299L474.614 845.409L474.771 845.525L474.928 845.645L475.084 845.769L475.241 845.899L475.398 846.034L475.555 846.174L475.711 846.318L475.868 846.467L476.025 846.622L476.025 846.622L476.182 846.778L476.338 846.935L476.495 847.092L476.652 847.249L476.808 847.405L476.965 847.562L477.122 847.719L477.279 847.875L477.435 848.032L477.592 848.189L477.749 848.346L477.906 848.502L478.062 848.659L478.219 848.816L478.376 848.973L478.532 849.129L478.689 849.286L478.846 849.443L479.003 849.599L479.159 849.756L479.316 849.913L479.473 850.07L479.63 850.226L479.786 850.383L479.943 850.54L480.1 850.697L480.256 850.853L480.413 851.01L480.57 851.167L480.727 851.323L480.883 851.48L481.04 851.637L481.04 851.637L481.199 851.796L481.363 851.96L481.532 852.129L481.706 852.303L481.885 852.482L482.069 852.665L482.257 852.854L482.451 853.047L482.649 853.246L482.852 853.449L483.06 853.657L483.273 853.87L483.491 854.088L483.714 854.311L483.942 854.539L484.175 854.771L484.412 855.009L484.655 855.251L484.902 855.499L485.154 855.751L485.411 856.008L485.673 856.27L485.94 856.537L486.212 856.809L486.489 857.086L486.77 857.367L487.057 857.654L487.348 857.945L487.645 858.242L487.946 858.543L488.252 858.849L488.563 859.16L488.563 859.16L488.877 859.464L489.19 859.748L489.503 860.012L489.817 860.257L490.13 860.482L490.444 860.688L490.757 860.874L491.071 861.041L491.384 861.188L491.698 861.315L492.011 861.423L492.325 861.511L492.638 861.579L492.951 861.628L493.265 861.658L493.578 861.668L493.892 861.658L494.205 861.628L494.519 861.579L494.832 861.511L495.146 861.423L495.459 861.315L495.773 861.188L496.086 861.041L496.399 860.874L496.713 860.688L497.026 860.482L497.34 860.257L497.653 860.012L497.967 859.748L498.28 859.464L498.594 859.16L498.594 859.16L498.905 858.849L499.211 858.543L499.512 858.242L499.808 857.945L500.1 857.654L500.386 857.367L500.668 857.086L500.945 856.809L501.216 856.537L501.483 856.27L501.745 856.008L502.002 855.751L502.255 855.499L502.502 855.251L502.744 855.009L502.982 854.771L503.215 854.539L503.442 854.311L503.665 854.088L503.883 853.87L504.096 853.657L504.304 853.449L504.508 853.246L504.706 853.047L504.899 852.854L505.088 852.665L505.272 852.482L505.45 852.303L505.624 852.129L505.793 851.96L505.957 851.796L506.117 851.637L506.117 851.637L506.273 851.48L506.43 851.323L506.587 851.167L506.743 851.01L506.9 850.853L507.057 850.697L507.214 850.54L507.37 850.383L507.527 850.226L507.684 850.07L507.841 849.913L507.997 849.756L508.154 849.599L508.311 849.443L508.467 849.286L508.624 849.129L508.781 848.973L508.938 848.816L509.094 848.659L509.251 848.502L509.408 848.346L509.565 848.189L509.721 848.032L509.878 847.875L510.035 847.719L510.191 847.562L510.348 847.405L510.505 847.249L510.662 847.092L510.818 846.935L510.975 846.778L511.132 846.622L511.132 846.622L511.289 846.467L511.445 846.318L511.602 846.174L511.759 846.034L511.915 845.899L512.072 845.769L512.229 845.645L512.386 845.525L512.542 845.409L512.699 845.299L512.856 845.194L513.013 845.094L513.169 844.998L513.326 844.907L513.483 844.822L513.639 844.741L513.796 844.665L513.953 844.594L514.11 844.528L514.266 844.467L514.423 844.41L514.58 844.359L514.737 844.312L514.893 844.271L515.05 844.234L515.207 844.202L515.363 844.175L515.52 844.153L515.677 844.136L515.834 844.124L515.99 844.116L516.147 844.114L516.147 844.114L516.305 844.114L516.465 844.114L516.628 844.114L516.794 844.114L516.961 844.114L517.132 844.114L517.304 844.114L517.479 844.114L517.657 844.114L517.837 844.114L518.019 844.114L518.204 844.114L518.392 844.114L518.581 844.114L518.774 844.114L518.968 844.114L519.165 844.114L519.365 844.114L519.567 844.114L519.771 844.114L519.978 844.114L520.188 844.114L520.4 844.114L520.614 844.114L520.831 844.114L521.05 844.114L521.271 844.114L521.495 844.114L521.722 844.114L521.951 844.114L522.182 844.114L522.416 844.114L522.416 844.114L522.651 844.114L522.886 844.114L523.122 844.114L523.357 844.114L523.592 844.114L523.827 844.114L524.062 844.114L524.297 844.114L524.532 844.114L524.767 844.114L525.002 844.114L525.237 844.114L525.472 844.114L525.708 844.114L525.943 844.114L526.178 844.114L526.413 844.114L526.648 844.114L526.883 844.114L527.118 844.114L527.353 844.114L527.588 844.114L527.823 844.114L528.058 844.114L528.294 844.114L528.529 844.114L528.764 844.114L528.999 844.114L529.234 844.114L529.469 844.114L529.704 844.114L529.939 844.114L529.939 844.114L530.167 844.118L530.38 844.129L530.578 844.147L530.762 844.173L530.931 844.206L531.085 844.246L531.225 844.294L531.35 844.349L531.46 844.412L531.555 844.481L531.636 844.558L531.702 844.643L531.754 844.735L531.791 844.834L531.813 844.941L531.82 845.054L531.813 845.176L531.791 845.304L531.754 845.44L531.702 845.583L531.636 845.734L531.555 845.892L531.46 846.057L531.35 846.23L531.225 846.41L531.085 846.597L530.931 846.792L530.762 846.994L530.578 847.203L530.38 847.42L530.167 847.644L529.939 847.875L529.939 847.875L529.7 848.114L529.454 848.36L529.201 848.614L528.94 848.875L528.672 849.143L528.396 849.418L528.114 849.701L527.823 849.991L527.526 850.289L527.221 850.594L526.909 850.906L526.589 851.226L526.262 851.552L525.928 851.887L525.586 852.228L525.237 852.577L524.881 852.934L524.517 853.297L524.146 853.668L523.768 854.047L523.382 854.432L522.989 854.825L522.589 855.226L522.181 855.633L521.766 856.049L521.344 856.471L520.914 856.901L520.477 857.338L520.032 857.782L519.58 858.234L519.121 858.693L518.655 859.16"/>
<path class="l5" d="M649.052 119.405L644.037 121.913L649.052 124.42L649.052 119.405"/>
<path class="l5" d="M646.545 89.3134L651.56 89.3134L651.56 94.3286L646.545 94.3286L646.545 89.3134z"/>
<path class="l5" d="M606.422 119.405L611.438 119.405L611.438 124.42L606.422 124.42L606.422 119.405z"/>
<path class="l5" d="M646.545 149.497L651.56 149.497L651.56 154.512L646.545 154.512L646.545 149.497z"/>
<path class="l5" d="M648.974 121.834L649.131 121.834L649.131 121.991L648.974 121.991L648.974 121.834z"/>
<path class="l5" d="M646.545 149.497L651.56 149.497L651.56 154.512L646.545 154.512L646.545 149.497z"/>
<path class="l5" d="M646.545 209.68L651.56 209.68L651.56 214.696L646.545 214.696L646.545 209.68z"/>
<path class="l5" d="M648.582 221.748L649.522 221.748L649.522 222.689L648.582 222.689L648.582 221.748z"/>
<path class="l5" d="M648.582 301.993L649.522 301.993L649.522 302.933L648.582 302.933L648.582 301.993z"/>
<path class="l5" d="M648.582 382.237L649.522 382.237L649.522 383.178L648.582 383.178L648.582 382.237z"/>
<path class="l5" d="M647.798 311.24L650.306 311.24L650.306 313.747L647.798 313.747L647.798 311.24z"/>
<path class="l5" d="M647.798 391.484L650.306 391.484L650.306 393.992L647.798 393.992L647.798 391.484z"/>
<path class="l5" d="M1038.99 341.332L1041.5 341.332L1041.5 343.839L1038.99 343.839L1038.99 341.332z"/>
<path class="l5" d="M877.248 129.436L882.263 129.436L882.263 134.451L877.248 134.451L877.248 129.436z"/>
<path class="l5" d="M877.248 189.619L882.263 189.619L882.263 194.634L877.248 194.634L877.248 189.619z"/>
<path class="l5" d="M837.125 139.466L842.141 139.466L842.141 144.482L837.125 144.482L837.125 139.466z"/>
<path class="l5" d="M837.125 179.589L842.141 179.589L842.141 184.604L837.125 184.604L837.125 179.589z"/>
<path class="l5" d="M838.379 140.72L840.887 140.72L840.887 143.228L838.379 143.228L838.379 140.72z"/>
<path class="l5" d="M838.379 180.842L840.887 180.842L840.887 183.35L838.379 183.35L838.379 180.842z"/>
<path class="l5" d="M877.248 189.619L882.263 189.619L882.263 194.634L877.248 194.634L877.248 189.619z"/>
<path class="l5" d="M878.502 90.5672L881.009 90.5672L881.009 93.0748L878.502 93.0748L878.502 90.5672z"/>
<path class="l5" d="M877.248 470.475L882.263 470.475L882.263 475.49L877.248 475.49L877.248 470.475z"/>
<path class="l5" d="M877.248 370.169L882.263 370.169L882.263 375.185L877.248 375.185L877.248 370.169z"/>
<path class="l5" d="M877.248 309.986L882.263 309.986L882.263 315.001L877.248 315.001L877.248 309.986z"/>
<path class="l5" d="M1037.74 340.078L1042.75 340.078L1042.75 345.093L1037.74 345.093L1037.74 340.078z"/>
<path class="l5" d="M877.248 450.414L882.263 450.414L882.263 455.429L877.248 455.429L877.248 450.414z"/>
<path class="l5" d="M877.248 410.292L882.263 410.292L882.263 415.307L877.248 415.307L877.248 410.292z"/>
<path class="l5" d="M877.248 430.353L882.263 430.353L882.263 435.368L877.248 435.368L877.248 430.353z"/>
<path class="l5" d="M877.248 490.536L882.263 490.536L882.263 495.552L877.248 495.552L877.248 490.536z"/>
<path class="l5" d="M646.545 450.414L651.56 450.414L651.56 455.429L646.545 455.429L646.545 450.414z"/>
<path class="l5" d="M646.545 390.231L651.56 390.231L651.56 395.246L646.545 395.246L646.545 390.231z"/>
<path class="l5" d="M626.483 420.322L631.499 420.322L631.499 425.338L626.483 425.338L626.483 420.322z"/>
<path class="l5" d="M646.545 370.169L651.56 370.169L651.56 375.185L646.545 375.185L646.545 370.169z"/>
<path class="l5" d="M646.545 309.986L651.56 309.986L651.56 315.001L646.545 315.001L646.545 309.986z"/>
<path class="l5" d="M626.483 340.078L631.499 340.078L631.499 345.093L626.483 345.093L626.483 340.078z"/>
<path class="l5" d="M646.545 289.925L651.56 289.925L651.56 294.94L646.545 294.94L646.545 289.925z"/>
<path class="l5" d="M646.545 229.741L651.56 229.741L651.56 234.757L646.545 234.757L646.545 229.741z"/>
<path class="l5" d="M626.483 259.833L631.499 259.833L631.499 264.848L626.483 264.848L626.483 259.833z"/>
<path class="l5" d="M1047.77 610.903L1052.78 610.903L1052.78 615.918L1047.77 615.918L1047.77 610.903z"/>
<path class="l5" d="M927.401 610.903L932.416 610.903L932.416 615.918L927.401 615.918L927.401 610.903z"/>
<path class="l5" d="M1007.65 560.75L1012.66 560.75L1012.66 565.766L1007.65 565.766L1007.65 560.75z"/>
<path class="l5" d="M987.584 661.056L992.599 661.056L992.599 666.071L987.584 666.071L987.584 661.056z"/>
<path class="l5" d="M967.523 560.75L972.538 560.75L972.538 565.766L967.523 565.766L967.523 560.75z"/>
<path class="l5" d="M928.654 612.157L931.162 612.157L931.162 614.665L928.654 614.665L928.654 612.157z"/>
<path class="l5" d="M1158.1 340.078L1163.12 340.078L1163.12 345.093L1158.1 345.093L1158.1 340.078z"/>
<path class="l5" d="M1358.72 330.047L1363.73 330.047L1363.73 335.062L1358.72 335.062L1358.72 330.047z"/>
<path class="l5" d="M1158.1 420.322L1163.12 420.322L1163.12 425.338L1158.1 425.338L1158.1 420.322z"/>
<path class="l5" d="M1158.1 440.383L1163.12 440.383L1163.12 445.399L1158.1 445.399L1158.1 440.383z"/>
<path class="l5" d="M1158.1 460.445L1163.12 460.445L1163.12 465.46L1158.1 465.46L1158.1 460.445z"/>
<path class="l5" d="M1158.1 480.506L1163.12 480.506L1163.12 485.521L1158.1 485.521L1158.1 480.506z"/>
<path class="l5" d="M1358.72 350.108L1363.73 350.108L1363.73 355.124L1358.72 355.124L1358.72 350.108z"/>
<path class="l5" d="M1358.72 370.169L1363.73 370.169L1363.73 375.185L1358.72 375.185L1358.72 370.169z"/>
<path class="l5" d="M1298.53 420.322L1303.55 420.322L1303.55 425.338L1298.53 425.338L1298.53 420.322z"/>
<path class="l5" d="M1159.36 421.576L1161.87 421.576L1161.87 424.084L1159.36 424.084L1159.36 421.576z"/>
<path class="l5" d="M1159.36 441.637L1161.87 441.637L1161.87 444.145L1159.36 444.145L1159.36 441.637z"/>
<path class="l5" d="M1159.36 461.698L1161.87 461.698L1161.87 464.206L1159.36 464.206L1159.36 461.698z"/>
<path class="l5" d="M878.502 451.668L881.009 451.668L881.009 454.175L878.502 454.175L878.502 451.668z"/>
<path class="l5" d="M878.502 411.546L881.009 411.546L881.009 414.053L878.502 414.053L878.502 411.546z"/>
<path class="l5" d="M647.798 30.3837L650.306 30.3837L650.306 32.8914L647.798 32.8914L647.798 30.3837z"/>
<path class="l5" d="M1159.36 481.76L1161.87 481.76L1161.87 484.267L1159.36 484.267L1159.36 481.76z"/>
<path class="l5" d="M478.532 653.533L481.667 653.533"/>
<path class="l5" d="M492.325 658.548L496.086 653.533L492.325 648.518L485.428 648.518L481.667 653.533L485.428 658.548L492.325 658.548"/>
<path class="l5" d="M477.279 652.279L479.786 652.279L479.786 654.787L477.279 654.787L477.279 652.279z"/>
<path class="l5" d="M628.991 703.686L637.768 703.686"/>
<path class="l5" d="M646.545 703.686L642.783 698.671L634.006 698.671L637.768 703.686L634.006 708.701L642.783 708.701L646.545 703.686"/>
<path class="l5" d="M627.737 702.432L630.245 702.432L630.245 704.94L627.737 704.94L627.737 702.432z"/>
<path class="l5" d="M478.532 683.625L481.667 683.625"/>
<path class="l5" d="M492.325 688.64L496.086 683.625L492.325 678.61L485.428 678.61L481.667 683.625L485.428 688.64L492.325 688.64"/>
<path class="l5" d="M477.279 682.371L479.786 682.371L479.786 684.879L477.279 684.879L477.279 682.371z"/>
<path class="l5" d="M478.532 623.441L481.667 623.441"/>
<path class="l5" d="M492.325 628.457L496.086 623.441L492.325 618.426L485.428 618.426L481.667 623.441L485.428 628.457L492.325 628.457"/>
<path class="l5" d="M477.279 622.188L479.786 622.188L479.786 624.695L477.279 624.695L477.279 622.188z"/>
<path class="l5" d="M878.502 431.607L881.009 431.607L881.009 434.114L878.502 434.114L878.502 431.607z"/>
<path class="l5" d="M628.991 733.778L637.768 733.778"/>
<path class="l5" d="M646.545 733.778L642.783 728.762L634.006 728.762L637.768 733.778L634.006 738.793L642.783 738.793L646.545 733.778"/>
<path class="l5" d="M627.737 732.524L630.245 732.524L630.245 735.032L627.737 735.032L627.737 732.524z"/>
<path class="l5" d="M1008.9 562.004L1011.41 562.004L1011.41 564.512L1008.9 564.512L1008.9 562.004z"/>
<path class="l5" d="M968.777 562.004L971.284 562.004L971.284 564.512L968.777 564.512L968.777 562.004z"/>
<path class="l5" d="M493.578 743.808L498.594 743.808"/>
<path class="l5" d="M493.578 743.808L489.817 738.793L481.04 738.793L484.802 743.808L481.04 748.824L489.817 748.824L493.578 743.808"/>
<path class="l5" d="M497.34 742.554L499.847 742.554L499.847 745.062L497.34 745.062L497.34 742.554z"/>
<path class="l5" d="M1359.97 331.301L1362.48 331.301L1362.48 333.809L1359.97 333.809L1359.97 331.301z"/>
<path class="l5" d="M1359.97 351.362L1362.48 351.362L1362.48 353.87L1359.97 353.87L1359.97 351.362z"/>
<path class="l5" d="M1359.97 371.423L1362.48 371.423L1362.48 373.931L1359.97 373.931L1359.97 371.423z"/>
<path class="l5" d="M628.991 763.869L637.768 763.869"/>
<path class="l5" d="M646.545 763.869L642.783 758.854L634.006 758.854L637.768 763.869L634.006 768.885L642.783 768.885L646.545 763.869"/>
<path class="l5" d="M627.737 762.616L630.245 762.616L630.245 765.123L627.737 765.123L627.737 762.616z"/>
<path class="l5" d="M478.532 713.717L481.667 713.717"/>
<path class="l5" d="M492.325 718.732L496.086 713.717L492.325 708.701L485.428 708.701L481.667 713.717L485.428 718.732L492.325 718.732"/>
<path class="l5" d="M477.279 712.463L479.786 712.463L479.786 714.97L477.279 714.97L477.279 712.463z"/>
<path class="l5" d="M988.838 672.34L991.346 672.34L991.346 674.848L988.838 674.848L988.838 672.34z"/>
<path class="l5" d="M627.737 471.729L630.245 471.729L630.245 474.237L627.737 474.237L627.737 471.729z"/>
<path class="l5" d="M677.89 120.659L680.398 120.659L680.398 123.167L677.89 123.167L677.89 120.659z"/>
<path class="l5" d="M1299.79 441.637L1302.29 441.637L1302.29 444.145L1299.79 444.145L1299.79 441.637z"/>
<path class="l5" d="M978.807 140.72L981.315 140.72L981.315 143.228L978.807 143.228L978.807 140.72z"/>
<path class="l5" d="M978.807 140.72L981.315 140.72L981.315 143.228L978.807 143.228L978.807 140.72z"/>
<path class="l6" d="M754.373 874.206L1551.8 874.206"/>
<path class="l6" d="M368.196 874.206L433.395 874.206"/>
<path class="l7" d="M608.93 129.436L611.438 129.436L611.438 139.466L608.93 139.466L608.93 129.436z"/>
<path class="l7" d="M613.945 129.436L616.453 129.436L616.453 139.466L613.945 139.466L613.945 129.436z"/>
<path class="l7" d="M618.961 129.436L621.468 129.436L621.468 139.466L618.961 139.466L618.961 129.436z"/>
<path class="l8" style="fill:none;" d="M606.422 136.959L606.422 131.943L623.976 131.943L623.976 136.959L606.422 136.959"/>
<circle class="l15" cx="719.266" cy="91.821" r="1.88073" />
<circle class="l15" cx="719.266" cy="41.6681" r="1.88073" />
<path class="l15" d="M649.052 222.218L654.068 217.203"/>
<path class="l15" d="M649.052 302.463L654.068 297.448"/>
<path class="l15" d="M649.052 382.708L654.068 377.692"/>
<path class="l1" d="M649.052 31.6376L649.052 91.821"/>
<path class="l1" d="M649.052 121.913L679.144 121.913"/>
<path class="l1" d="M608.93 71.7598L649.052 71.7598"/>
<path class="l1" d="M608.93 71.7598L608.93 121.913"/>
<path class="l1" d="M628.991 422.83L628.991 472.983"/>
<path class="l1" d="M628.991 472.983L649.052 472.983"/>
<path class="l1" d="M649.052 452.922L649.052 472.983"/>
<path class="l1" d="M649.052 212.188L649.052 232.249"/>
<path class="l1" d="M649.052 292.432L649.052 312.494"/>
<path class="l1" d="M649.052 372.677L649.052 392.738"/>
<path class="l1" d="M628.991 342.585L628.991 422.83"/>
<path class="l1" d="M628.991 262.341L628.991 342.585"/>
<path class="l1" d="M799.511 312.494L879.755 312.494"/>
<path class="l1" d="M649.052 312.494L799.511 312.494"/>
<path class="l1" d="M829.603 372.677L879.755 372.677"/>
<path class="l1" d="M649.052 372.677L829.603 372.677"/>
<path class="l1" d="M879.755 91.821L879.755 131.943"/>
<path class="l1" d="M990.092 663.564L990.092 673.594"/>
<path class="l1" d="M1040.24 342.585L1160.61 342.585"/>
<path class="l1" d="M879.755 493.044L879.755 613.411"/>
<path class="l1" d="M879.755 613.411L929.908 613.411"/>
<path class="l1" d="M1050.28 613.411L1090.4 613.411"/>
<path class="l1" d="M1090.4 342.585L1090.4 613.411"/>
<path class="l1" d="M1301.04 422.83L1301.04 442.891"/>
<circle class="l1" cx="649.052" cy="71.7598" r="3.71131"/>
<circle class="l1" cx="1090.4" cy="342.585" r="3.71131"/>
</svg>
