<?xml version="1.0" encoding="utf-8" standalone="no"?>
<!DOCTYPE svg PUBLIC "-//W3C//DTD SVG 1.1//EN"
  "http://www.w3.org/Graphics/SVG/1.1/DTD/svg11.dtd">
<svg xmlns:xlink="http://www.w3.org/1999/xlink" width="408.379375pt" height="310.86825pt" viewBox="0 0 408.379375 310.86825" xmlns="http://www.w3.org/2000/svg" version="1.1">
 <metadata>
  <rdf:RDF xmlns:dc="http://purl.org/dc/elements/1.1/" xmlns:cc="http://creativecommons.org/ns#" xmlns:rdf="http://www.w3.org/1999/02/22-rdf-syntax-ns#">
   <cc:Work>
    <dc:type rdf:resource="http://purl.org/dc/dcmitype/StillImage"/>
    <dc:date>2024-10-22T13:22:12.415978</dc:date>
    <dc:format>image/svg+xml</dc:format>
    <dc:creator>
     <cc:Agent>
      <dc:title>Matplotlib v3.8.4, https://matplotlib.org/</dc:title>
     </cc:Agent>
    </dc:creator>
   </cc:Work>
  </rdf:RDF>
 </metadata>
 <defs>
  <style type="text/css">*{stroke-linejoin: round; stroke-linecap: butt}</style>
 </defs>
 <g id="figure_1">
  <g id="patch_1">
   <path d="M 0 310.86825 
L 408.379375 310.86825 
L 408.379375 0 
L 0 0 
z
" style="fill: #ffffff"/>
  </g>
  <g id="axes_1">
   <g id="patch_2">
    <path d="M 44.059375 273.312 
L 401.179375 273.312 
L 401.179375 7.2 
L 44.059375 7.2 
z
" style="fill: #ffffff"/>
   </g>
   <g id="matplotlib.axis_1">
    <g id="xtick_1">
     <g id="line2d_1">
      <defs>
       <path id="m4842d5ca2a" d="M 0 0 
L 0 3.5 
" style="stroke: #000000; stroke-width: 0.8"/>
      </defs>
      <g>
       <use xlink:href="#m4842d5ca2a" x="60.292102" y="273.312" style="stroke: #000000; stroke-width: 0.8"/>
      </g>
     </g>
     <g id="text_1">
      <!-- 0.00 -->
      <g transform="translate(49.15929 287.910437) scale(0.1 -0.1)">
       <defs>
        <path id="DejaVuSans-30" d="M 2034 4250 
Q 1547 4250 1301 3770 
Q 1056 3291 1056 2328 
Q 1056 1369 1301 889 
Q 1547 409 2034 409 
Q 2525 409 2770 889 
Q 3016 1369 3016 2328 
Q 3016 3291 2770 3770 
Q 2525 4250 2034 4250 
z
M 2034 4750 
Q 2819 4750 3233 4129 
Q 3647 3509 3647 2328 
Q 3647 1150 3233 529 
Q 2819 -91 2034 -91 
Q 1250 -91 836 529 
Q 422 1150 422 2328 
Q 422 3509 836 4129 
Q 1250 4750 2034 4750 
z
" transform="scale(0.015625)"/>
        <path id="DejaVuSans-2e" d="M 684 794 
L 1344 794 
L 1344 0 
L 684 0 
L 684 794 
z
" transform="scale(0.015625)"/>
       </defs>
       <use xlink:href="#DejaVuSans-30"/>
       <use xlink:href="#DejaVuSans-2e" x="63.623047"/>
       <use xlink:href="#DejaVuSans-30" x="95.410156"/>
       <use xlink:href="#DejaVuSans-30" x="159.033203"/>
      </g>
     </g>
    </g>
    <g id="xtick_2">
     <g id="line2d_2">
      <g>
       <use xlink:href="#m4842d5ca2a" x="114.401193" y="273.312" style="stroke: #000000; stroke-width: 0.8"/>
      </g>
     </g>
     <g id="text_2">
      <!-- 0.02 -->
      <g transform="translate(103.268381 287.910437) scale(0.1 -0.1)">
       <defs>
        <path id="DejaVuSans-32" d="M 1228 531 
L 3431 531 
L 3431 0 
L 469 0 
L 469 531 
Q 828 903 1448 1529 
Q 2069 2156 2228 2338 
Q 2531 2678 2651 2914 
Q 2772 3150 2772 3378 
Q 2772 3750 2511 3984 
Q 2250 4219 1831 4219 
Q 1534 4219 1204 4116 
Q 875 4013 500 3803 
L 500 4441 
Q 881 4594 1212 4672 
Q 1544 4750 1819 4750 
Q 2544 4750 2975 4387 
Q 3406 4025 3406 3419 
Q 3406 3131 3298 2873 
Q 3191 2616 2906 2266 
Q 2828 2175 2409 1742 
Q 1991 1309 1228 531 
z
" transform="scale(0.015625)"/>
       </defs>
       <use xlink:href="#DejaVuSans-30"/>
       <use xlink:href="#DejaVuSans-2e" x="63.623047"/>
       <use xlink:href="#DejaVuSans-30" x="95.410156"/>
       <use xlink:href="#DejaVuSans-32" x="159.033203"/>
      </g>
     </g>
    </g>
    <g id="xtick_3">
     <g id="line2d_3">
      <g>
       <use xlink:href="#m4842d5ca2a" x="168.510284" y="273.312" style="stroke: #000000; stroke-width: 0.8"/>
      </g>
     </g>
     <g id="text_3">
      <!-- 0.04 -->
      <g transform="translate(157.377472 287.910437) scale(0.1 -0.1)">
       <defs>
        <path id="DejaVuSans-34" d="M 2419 4116 
L 825 1625 
L 2419 1625 
L 2419 4116 
z
M 2253 4666 
L 3047 4666 
L 3047 1625 
L 3713 1625 
L 3713 1100 
L 3047 1100 
L 3047 0 
L 2419 0 
L 2419 1100 
L 313 1100 
L 313 1709 
L 2253 4666 
z
" transform="scale(0.015625)"/>
       </defs>
       <use xlink:href="#DejaVuSans-30"/>
       <use xlink:href="#DejaVuSans-2e" x="63.623047"/>
       <use xlink:href="#DejaVuSans-30" x="95.410156"/>
       <use xlink:href="#DejaVuSans-34" x="159.033203"/>
      </g>
     </g>
    </g>
    <g id="xtick_4">
     <g id="line2d_4">
      <g>
       <use xlink:href="#m4842d5ca2a" x="222.619375" y="273.312" style="stroke: #000000; stroke-width: 0.8"/>
      </g>
     </g>
     <g id="text_4">
      <!-- 0.06 -->
      <g transform="translate(211.486563 287.910437) scale(0.1 -0.1)">
       <defs>
        <path id="DejaVuSans-36" d="M 2113 2584 
Q 1688 2584 1439 2293 
Q 1191 2003 1191 1497 
Q 1191 994 1439 701 
Q 1688 409 2113 409 
Q 2538 409 2786 701 
Q 3034 994 3034 1497 
Q 3034 2003 2786 2293 
Q 2538 2584 2113 2584 
z
M 3366 4563 
L 3366 3988 
Q 3128 4100 2886 4159 
Q 2644 4219 2406 4219 
Q 1781 4219 1451 3797 
Q 1122 3375 1075 2522 
Q 1259 2794 1537 2939 
Q 1816 3084 2150 3084 
Q 2853 3084 3261 2657 
Q 3669 2231 3669 1497 
Q 3669 778 3244 343 
Q 2819 -91 2113 -91 
Q 1303 -91 875 529 
Q 447 1150 447 2328 
Q 447 3434 972 4092 
Q 1497 4750 2381 4750 
Q 2619 4750 2861 4703 
Q 3103 4656 3366 4563 
z
" transform="scale(0.015625)"/>
       </defs>
       <use xlink:href="#DejaVuSans-30"/>
       <use xlink:href="#DejaVuSans-2e" x="63.623047"/>
       <use xlink:href="#DejaVuSans-30" x="95.410156"/>
       <use xlink:href="#DejaVuSans-36" x="159.033203"/>
      </g>
     </g>
    </g>
    <g id="xtick_5">
     <g id="line2d_5">
      <g>
       <use xlink:href="#m4842d5ca2a" x="276.728466" y="273.312" style="stroke: #000000; stroke-width: 0.8"/>
      </g>
     </g>
     <g id="text_5">
      <!-- 0.08 -->
      <g transform="translate(265.595653 287.910437) scale(0.1 -0.1)">
       <defs>
        <path id="DejaVuSans-38" d="M 2034 2216 
Q 1584 2216 1326 1975 
Q 1069 1734 1069 1313 
Q 1069 891 1326 650 
Q 1584 409 2034 409 
Q 2484 409 2743 651 
Q 3003 894 3003 1313 
Q 3003 1734 2745 1975 
Q 2488 2216 2034 2216 
z
M 1403 2484 
Q 997 2584 770 2862 
Q 544 3141 544 3541 
Q 544 4100 942 4425 
Q 1341 4750 2034 4750 
Q 2731 4750 3128 4425 
Q 3525 4100 3525 3541 
Q 3525 3141 3298 2862 
Q 3072 2584 2669 2484 
Q 3125 2378 3379 2068 
Q 3634 1759 3634 1313 
Q 3634 634 3220 271 
Q 2806 -91 2034 -91 
Q 1263 -91 848 271 
Q 434 634 434 1313 
Q 434 1759 690 2068 
Q 947 2378 1403 2484 
z
M 1172 3481 
Q 1172 3119 1398 2916 
Q 1625 2713 2034 2713 
Q 2441 2713 2670 2916 
Q 2900 3119 2900 3481 
Q 2900 3844 2670 4047 
Q 2441 4250 2034 4250 
Q 1625 4250 1398 4047 
Q 1172 3844 1172 3481 
z
" transform="scale(0.015625)"/>
       </defs>
       <use xlink:href="#DejaVuSans-30"/>
       <use xlink:href="#DejaVuSans-2e" x="63.623047"/>
       <use xlink:href="#DejaVuSans-30" x="95.410156"/>
       <use xlink:href="#DejaVuSans-38" x="159.033203"/>
      </g>
     </g>
    </g>
    <g id="xtick_6">
     <g id="line2d_6">
      <g>
       <use xlink:href="#m4842d5ca2a" x="330.837557" y="273.312" style="stroke: #000000; stroke-width: 0.8"/>
      </g>
     </g>
     <g id="text_6">
      <!-- 0.10 -->
      <g transform="translate(319.704744 287.910437) scale(0.1 -0.1)">
       <defs>
        <path id="DejaVuSans-31" d="M 794 531 
L 1825 531 
L 1825 4091 
L 703 3866 
L 703 4441 
L 1819 4666 
L 2450 4666 
L 2450 531 
L 3481 531 
L 3481 0 
L 794 0 
L 794 531 
z
" transform="scale(0.015625)"/>
       </defs>
       <use xlink:href="#DejaVuSans-30"/>
       <use xlink:href="#DejaVuSans-2e" x="63.623047"/>
       <use xlink:href="#DejaVuSans-31" x="95.410156"/>
       <use xlink:href="#DejaVuSans-30" x="159.033203"/>
      </g>
     </g>
    </g>
    <g id="xtick_7">
     <g id="line2d_7">
      <g>
       <use xlink:href="#m4842d5ca2a" x="384.946648" y="273.312" style="stroke: #000000; stroke-width: 0.8"/>
      </g>
     </g>
     <g id="text_7">
      <!-- 0.12 -->
      <g transform="translate(373.813835 287.910437) scale(0.1 -0.1)">
       <use xlink:href="#DejaVuSans-30"/>
       <use xlink:href="#DejaVuSans-2e" x="63.623047"/>
       <use xlink:href="#DejaVuSans-31" x="95.410156"/>
       <use xlink:href="#DejaVuSans-32" x="159.033203"/>
      </g>
     </g>
    </g>
    <g id="text_8">
     <!-- Time (ms) -->
     <g transform="translate(197.420156 301.588562) scale(0.1 -0.1)">
      <defs>
       <path id="DejaVuSans-54" d="M -19 4666 
L 3928 4666 
L 3928 4134 
L 2272 4134 
L 2272 0 
L 1638 0 
L 1638 4134 
L -19 4134 
L -19 4666 
z
" transform="scale(0.015625)"/>
       <path id="DejaVuSans-69" d="M 603 3500 
L 1178 3500 
L 1178 0 
L 603 0 
L 603 3500 
z
M 603 4863 
L 1178 4863 
L 1178 4134 
L 603 4134 
L 603 4863 
z
" transform="scale(0.015625)"/>
       <path id="DejaVuSans-6d" d="M 3328 2828 
Q 3544 3216 3844 3400 
Q 4144 3584 4550 3584 
Q 5097 3584 5394 3201 
Q 5691 2819 5691 2113 
L 5691 0 
L 5113 0 
L 5113 2094 
Q 5113 2597 4934 2840 
Q 4756 3084 4391 3084 
Q 3944 3084 3684 2787 
Q 3425 2491 3425 1978 
L 3425 0 
L 2847 0 
L 2847 2094 
Q 2847 2600 2669 2842 
Q 2491 3084 2119 3084 
Q 1678 3084 1418 2786 
Q 1159 2488 1159 1978 
L 1159 0 
L 581 0 
L 581 3500 
L 1159 3500 
L 1159 2956 
Q 1356 3278 1631 3431 
Q 1906 3584 2284 3584 
Q 2666 3584 2933 3390 
Q 3200 3197 3328 2828 
z
" transform="scale(0.015625)"/>
       <path id="DejaVuSans-65" d="M 3597 1894 
L 3597 1613 
L 953 1613 
Q 991 1019 1311 708 
Q 1631 397 2203 397 
Q 2534 397 2845 478 
Q 3156 559 3463 722 
L 3463 178 
Q 3153 47 2828 -22 
Q 2503 -91 2169 -91 
Q 1331 -91 842 396 
Q 353 884 353 1716 
Q 353 2575 817 3079 
Q 1281 3584 2069 3584 
Q 2775 3584 3186 3129 
Q 3597 2675 3597 1894 
z
M 3022 2063 
Q 3016 2534 2758 2815 
Q 2500 3097 2075 3097 
Q 1594 3097 1305 2825 
Q 1016 2553 972 2059 
L 3022 2063 
z
" transform="scale(0.015625)"/>
       <path id="DejaVuSans-20" transform="scale(0.015625)"/>
       <path id="DejaVuSans-28" d="M 1984 4856 
Q 1566 4138 1362 3434 
Q 1159 2731 1159 2009 
Q 1159 1288 1364 580 
Q 1569 -128 1984 -844 
L 1484 -844 
Q 1016 -109 783 600 
Q 550 1309 550 2009 
Q 550 2706 781 3412 
Q 1013 4119 1484 4856 
L 1984 4856 
z
" transform="scale(0.015625)"/>
       <path id="DejaVuSans-73" d="M 2834 3397 
L 2834 2853 
Q 2591 2978 2328 3040 
Q 2066 3103 1784 3103 
Q 1356 3103 1142 2972 
Q 928 2841 928 2578 
Q 928 2378 1081 2264 
Q 1234 2150 1697 2047 
L 1894 2003 
Q 2506 1872 2764 1633 
Q 3022 1394 3022 966 
Q 3022 478 2636 193 
Q 2250 -91 1575 -91 
Q 1294 -91 989 -36 
Q 684 19 347 128 
L 347 722 
Q 666 556 975 473 
Q 1284 391 1588 391 
Q 1994 391 2212 530 
Q 2431 669 2431 922 
Q 2431 1156 2273 1281 
Q 2116 1406 1581 1522 
L 1381 1569 
Q 847 1681 609 1914 
Q 372 2147 372 2553 
Q 372 3047 722 3315 
Q 1072 3584 1716 3584 
Q 2034 3584 2315 3537 
Q 2597 3491 2834 3397 
z
" transform="scale(0.015625)"/>
       <path id="DejaVuSans-29" d="M 513 4856 
L 1013 4856 
Q 1481 4119 1714 3412 
Q 1947 2706 1947 2009 
Q 1947 1309 1714 600 
Q 1481 -109 1013 -844 
L 513 -844 
Q 928 -128 1133 580 
Q 1338 1288 1338 2009 
Q 1338 2731 1133 3434 
Q 928 4138 513 4856 
z
" transform="scale(0.015625)"/>
      </defs>
      <use xlink:href="#DejaVuSans-54"/>
      <use xlink:href="#DejaVuSans-69" x="57.958984"/>
      <use xlink:href="#DejaVuSans-6d" x="85.742188"/>
      <use xlink:href="#DejaVuSans-65" x="183.154297"/>
      <use xlink:href="#DejaVuSans-20" x="244.677734"/>
      <use xlink:href="#DejaVuSans-28" x="276.464844"/>
      <use xlink:href="#DejaVuSans-6d" x="315.478516"/>
      <use xlink:href="#DejaVuSans-73" x="412.890625"/>
      <use xlink:href="#DejaVuSans-29" x="464.990234"/>
     </g>
    </g>
   </g>
   <g id="matplotlib.axis_2">
    <g id="ytick_1">
     <g id="line2d_8">
      <defs>
       <path id="m9d20310b0e" d="M 0 0 
L -3.5 0 
" style="stroke: #000000; stroke-width: 0.8"/>
      </defs>
      <g>
       <use xlink:href="#m9d20310b0e" x="44.059375" y="261.211766" style="stroke: #000000; stroke-width: 0.8"/>
      </g>
     </g>
     <g id="text_9">
      <!-- 0.0 -->
      <g transform="translate(21.15625 265.010985) scale(0.1 -0.1)">
       <use xlink:href="#DejaVuSans-30"/>
       <use xlink:href="#DejaVuSans-2e" x="63.623047"/>
       <use xlink:href="#DejaVuSans-30" x="95.410156"/>
      </g>
     </g>
    </g>
    <g id="ytick_2">
     <g id="line2d_9">
      <g>
       <use xlink:href="#m9d20310b0e" x="44.059375" y="224.560506" style="stroke: #000000; stroke-width: 0.8"/>
      </g>
     </g>
     <g id="text_10">
      <!-- 0.5 -->
      <g transform="translate(21.15625 228.359724) scale(0.1 -0.1)">
       <defs>
        <path id="DejaVuSans-35" d="M 691 4666 
L 3169 4666 
L 3169 4134 
L 1269 4134 
L 1269 2991 
Q 1406 3038 1543 3061 
Q 1681 3084 1819 3084 
Q 2600 3084 3056 2656 
Q 3513 2228 3513 1497 
Q 3513 744 3044 326 
Q 2575 -91 1722 -91 
Q 1428 -91 1123 -41 
Q 819 9 494 109 
L 494 744 
Q 775 591 1075 516 
Q 1375 441 1709 441 
Q 2250 441 2565 725 
Q 2881 1009 2881 1497 
Q 2881 1984 2565 2268 
Q 2250 2553 1709 2553 
Q 1456 2553 1204 2497 
Q 953 2441 691 2322 
L 691 4666 
z
" transform="scale(0.015625)"/>
       </defs>
       <use xlink:href="#DejaVuSans-30"/>
       <use xlink:href="#DejaVuSans-2e" x="63.623047"/>
       <use xlink:href="#DejaVuSans-35" x="95.410156"/>
      </g>
     </g>
    </g>
    <g id="ytick_3">
     <g id="line2d_10">
      <g>
       <use xlink:href="#m9d20310b0e" x="44.059375" y="187.909245" style="stroke: #000000; stroke-width: 0.8"/>
      </g>
     </g>
     <g id="text_11">
      <!-- 1.0 -->
      <g transform="translate(21.15625 191.708464) scale(0.1 -0.1)">
       <use xlink:href="#DejaVuSans-31"/>
       <use xlink:href="#DejaVuSans-2e" x="63.623047"/>
       <use xlink:href="#DejaVuSans-30" x="95.410156"/>
      </g>
     </g>
    </g>
    <g id="ytick_4">
     <g id="line2d_11">
      <g>
       <use xlink:href="#m9d20310b0e" x="44.059375" y="151.257984" style="stroke: #000000; stroke-width: 0.8"/>
      </g>
     </g>
     <g id="text_12">
      <!-- 1.5 -->
      <g transform="translate(21.15625 155.057203) scale(0.1 -0.1)">
       <use xlink:href="#DejaVuSans-31"/>
       <use xlink:href="#DejaVuSans-2e" x="63.623047"/>
       <use xlink:href="#DejaVuSans-35" x="95.410156"/>
      </g>
     </g>
    </g>
    <g id="ytick_5">
     <g id="line2d_12">
      <g>
       <use xlink:href="#m9d20310b0e" x="44.059375" y="114.606723" style="stroke: #000000; stroke-width: 0.8"/>
      </g>
     </g>
     <g id="text_13">
      <!-- 2.0 -->
      <g transform="translate(21.15625 118.405942) scale(0.1 -0.1)">
       <use xlink:href="#DejaVuSans-32"/>
       <use xlink:href="#DejaVuSans-2e" x="63.623047"/>
       <use xlink:href="#DejaVuSans-30" x="95.410156"/>
      </g>
     </g>
    </g>
    <g id="ytick_6">
     <g id="line2d_13">
      <g>
       <use xlink:href="#m9d20310b0e" x="44.059375" y="77.955463" style="stroke: #000000; stroke-width: 0.8"/>
      </g>
     </g>
     <g id="text_14">
      <!-- 2.5 -->
      <g transform="translate(21.15625 81.754681) scale(0.1 -0.1)">
       <use xlink:href="#DejaVuSans-32"/>
       <use xlink:href="#DejaVuSans-2e" x="63.623047"/>
       <use xlink:href="#DejaVuSans-35" x="95.410156"/>
      </g>
     </g>
    </g>
    <g id="ytick_7">
     <g id="line2d_14">
      <g>
       <use xlink:href="#m9d20310b0e" x="44.059375" y="41.304202" style="stroke: #000000; stroke-width: 0.8"/>
      </g>
     </g>
     <g id="text_15">
      <!-- 3.0 -->
      <g transform="translate(21.15625 45.10342) scale(0.1 -0.1)">
       <defs>
        <path id="DejaVuSans-33" d="M 2597 2516 
Q 3050 2419 3304 2112 
Q 3559 1806 3559 1356 
Q 3559 666 3084 287 
Q 2609 -91 1734 -91 
Q 1441 -91 1130 -33 
Q 819 25 488 141 
L 488 750 
Q 750 597 1062 519 
Q 1375 441 1716 441 
Q 2309 441 2620 675 
Q 2931 909 2931 1356 
Q 2931 1769 2642 2001 
Q 2353 2234 1838 2234 
L 1294 2234 
L 1294 2753 
L 1863 2753 
Q 2328 2753 2575 2939 
Q 2822 3125 2822 3475 
Q 2822 3834 2567 4026 
Q 2313 4219 1838 4219 
Q 1578 4219 1281 4162 
Q 984 4106 628 3988 
L 628 4550 
Q 988 4650 1302 4700 
Q 1616 4750 1894 4750 
Q 2613 4750 3031 4423 
Q 3450 4097 3450 3541 
Q 3450 3153 3228 2886 
Q 3006 2619 2597 2516 
z
" transform="scale(0.015625)"/>
       </defs>
       <use xlink:href="#DejaVuSans-33"/>
       <use xlink:href="#DejaVuSans-2e" x="63.623047"/>
       <use xlink:href="#DejaVuSans-30" x="95.410156"/>
      </g>
     </g>
    </g>
    <g id="text_16">
     <!-- porb_h0 (V) -->
     <g transform="translate(14.798437 169.480219) rotate(-90) scale(0.1 -0.1)">
      <defs>
       <path id="DejaVuSans-70" d="M 1159 525 
L 1159 -1331 
L 581 -1331 
L 581 3500 
L 1159 3500 
L 1159 2969 
Q 1341 3281 1617 3432 
Q 1894 3584 2278 3584 
Q 2916 3584 3314 3078 
Q 3713 2572 3713 1747 
Q 3713 922 3314 415 
Q 2916 -91 2278 -91 
Q 1894 -91 1617 61 
Q 1341 213 1159 525 
z
M 3116 1747 
Q 3116 2381 2855 2742 
Q 2594 3103 2138 3103 
Q 1681 3103 1420 2742 
Q 1159 2381 1159 1747 
Q 1159 1113 1420 752 
Q 1681 391 2138 391 
Q 2594 391 2855 752 
Q 3116 1113 3116 1747 
z
" transform="scale(0.015625)"/>
       <path id="DejaVuSans-6f" d="M 1959 3097 
Q 1497 3097 1228 2736 
Q 959 2375 959 1747 
Q 959 1119 1226 758 
Q 1494 397 1959 397 
Q 2419 397 2687 759 
Q 2956 1122 2956 1747 
Q 2956 2369 2687 2733 
Q 2419 3097 1959 3097 
z
M 1959 3584 
Q 2709 3584 3137 3096 
Q 3566 2609 3566 1747 
Q 3566 888 3137 398 
Q 2709 -91 1959 -91 
Q 1206 -91 779 398 
Q 353 888 353 1747 
Q 353 2609 779 3096 
Q 1206 3584 1959 3584 
z
" transform="scale(0.015625)"/>
       <path id="DejaVuSans-72" d="M 2631 2963 
Q 2534 3019 2420 3045 
Q 2306 3072 2169 3072 
Q 1681 3072 1420 2755 
Q 1159 2438 1159 1844 
L 1159 0 
L 581 0 
L 581 3500 
L 1159 3500 
L 1159 2956 
Q 1341 3275 1631 3429 
Q 1922 3584 2338 3584 
Q 2397 3584 2469 3576 
Q 2541 3569 2628 3553 
L 2631 2963 
z
" transform="scale(0.015625)"/>
       <path id="DejaVuSans-62" d="M 3116 1747 
Q 3116 2381 2855 2742 
Q 2594 3103 2138 3103 
Q 1681 3103 1420 2742 
Q 1159 2381 1159 1747 
Q 1159 1113 1420 752 
Q 1681 391 2138 391 
Q 2594 391 2855 752 
Q 3116 1113 3116 1747 
z
M 1159 2969 
Q 1341 3281 1617 3432 
Q 1894 3584 2278 3584 
Q 2916 3584 3314 3078 
Q 3713 2572 3713 1747 
Q 3713 922 3314 415 
Q 2916 -91 2278 -91 
Q 1894 -91 1617 61 
Q 1341 213 1159 525 
L 1159 0 
L 581 0 
L 581 4863 
L 1159 4863 
L 1159 2969 
z
" transform="scale(0.015625)"/>
       <path id="DejaVuSans-5f" d="M 3263 -1063 
L 3263 -1509 
L -63 -1509 
L -63 -1063 
L 3263 -1063 
z
" transform="scale(0.015625)"/>
       <path id="DejaVuSans-68" d="M 3513 2113 
L 3513 0 
L 2938 0 
L 2938 2094 
Q 2938 2591 2744 2837 
Q 2550 3084 2163 3084 
Q 1697 3084 1428 2787 
Q 1159 2491 1159 1978 
L 1159 0 
L 581 0 
L 581 4863 
L 1159 4863 
L 1159 2956 
Q 1366 3272 1645 3428 
Q 1925 3584 2291 3584 
Q 2894 3584 3203 3211 
Q 3513 2838 3513 2113 
z
" transform="scale(0.015625)"/>
       <path id="DejaVuSans-56" d="M 1831 0 
L 50 4666 
L 709 4666 
L 2188 738 
L 3669 4666 
L 4325 4666 
L 2547 0 
L 1831 0 
z
" transform="scale(0.015625)"/>
      </defs>
      <use xlink:href="#DejaVuSans-70"/>
      <use xlink:href="#DejaVuSans-6f" x="63.476562"/>
      <use xlink:href="#DejaVuSans-72" x="124.658203"/>
      <use xlink:href="#DejaVuSans-62" x="165.771484"/>
      <use xlink:href="#DejaVuSans-5f" x="229.248047"/>
      <use xlink:href="#DejaVuSans-68" x="279.248047"/>
      <use xlink:href="#DejaVuSans-30" x="342.626953"/>
      <use xlink:href="#DejaVuSans-20" x="406.25"/>
      <use xlink:href="#DejaVuSans-28" x="438.037109"/>
      <use xlink:href="#DejaVuSans-56" x="477.050781"/>
      <use xlink:href="#DejaVuSans-29" x="545.458984"/>
     </g>
    </g>
   </g>
   <g id="line2d_15">
    <path d="M 60.292102 261.211766 
L 64.412091 261.124669 
L 64.844964 260.5793 
L 64.953182 261.213129 
L 64.980236 261.210666 
L 66.872091 261.211764 
L 219.687252 261.211766 
L 219.733529 19.296 
L 219.800425 19.330889 
L 219.935698 19.296017 
L 220.070971 19.330859 
L 220.206243 19.296048 
L 220.341516 19.330834 
L 220.476789 19.296067 
L 220.612062 19.330809 
L 220.747334 19.296092 
L 220.882607 19.330784 
L 221.01788 19.296117 
L 221.153153 19.330759 
L 221.288425 19.296142 
L 221.423698 19.330734 
L 221.558971 19.296167 
L 221.694243 19.330709 
L 221.829516 19.296192 
L 221.964789 19.330684 
L 222.100062 19.296217 
L 222.235334 19.330659 
L 222.370607 19.296242 
L 222.50588 19.330635 
L 222.641153 19.296267 
L 222.776425 19.33061 
L 222.911698 19.296292 
L 223.046971 19.330585 
L 223.182243 19.296316 
L 223.317516 19.33056 
L 223.452789 19.296341 
L 223.588062 19.330536 
L 223.723334 19.296366 
L 223.858607 19.330511 
L 223.99388 19.29639 
L 224.129153 19.330486 
L 224.264425 19.296415 
L 224.399698 19.330462 
L 224.534971 19.296439 
L 224.670243 19.330437 
L 224.805516 19.296464 
L 224.940789 19.330413 
L 225.076062 19.296488 
L 225.211334 19.330388 
L 225.346607 19.296513 
L 225.48188 19.330363 
L 225.617153 19.296537 
L 225.752425 19.330339 
L 225.887698 19.296561 
L 226.022971 19.330315 
L 226.158243 19.296586 
L 226.293516 19.330291 
L 226.428789 19.296611 
L 226.564062 19.330266 
L 226.699334 19.296635 
L 226.834607 19.330242 
L 226.96988 19.296659 
L 227.105153 19.330218 
L 227.240425 19.296683 
L 227.375698 19.330193 
L 227.510971 19.296707 
L 227.646243 19.330169 
L 227.781516 19.296732 
L 227.916789 19.330146 
L 228.052062 19.296756 
L 228.187334 19.330122 
L 228.322607 19.29678 
L 228.45788 19.330097 
L 228.593153 19.296804 
L 228.728425 19.330073 
L 228.863698 19.296828 
L 228.998971 19.330049 
L 229.134243 19.296852 
L 229.269516 19.330026 
L 229.404789 19.296876 
L 229.540062 19.330001 
L 229.675334 19.296899 
L 229.810607 19.329978 
L 229.94588 19.296924 
L 230.081153 19.329954 
L 230.216425 19.296947 
L 230.351698 19.32993 
L 230.486971 19.296971 
L 230.622243 19.329906 
L 230.757516 19.296995 
L 230.892789 19.329883 
L 231.028062 19.297019 
L 231.163334 19.329858 
L 231.298607 19.297042 
L 231.43388 19.329835 
L 231.569153 19.297066 
L 231.704425 19.329812 
L 231.839698 19.29709 
L 231.974971 19.329788 
L 232.110243 19.297113 
L 232.245516 19.329764 
L 232.380789 19.297137 
L 232.516062 19.32974 
L 232.651334 19.29716 
L 232.786607 19.329717 
L 232.92188 19.297184 
L 233.057153 19.329694 
L 233.192425 19.297207 
L 233.327698 19.32967 
L 233.462971 19.297231 
L 233.598243 19.329647 
L 233.733516 19.297254 
L 233.868789 19.329624 
L 234.004062 19.297278 
L 234.139334 19.3296 
L 234.274607 19.297301 
L 234.40988 19.329577 
L 234.545153 19.297325 
L 234.680425 19.329553 
L 234.815698 19.297347 
L 234.950971 19.32953 
L 235.086243 19.297371 
L 235.221516 19.329507 
L 235.356789 19.297394 
L 235.492062 19.329484 
L 235.627334 19.297417 
L 235.762607 19.329461 
L 235.89788 19.29744 
L 236.033153 19.329438 
L 236.168425 19.297463 
L 236.303698 19.329415 
L 236.438971 19.297487 
L 236.574243 19.329391 
L 236.709516 19.297509 
L 236.844789 19.329369 
L 236.980062 19.297533 
L 237.115334 19.329346 
L 237.250607 19.297555 
L 237.38588 19.329323 
L 237.521153 19.297578 
L 237.656425 19.3293 
L 237.791698 19.297601 
L 237.926971 19.329277 
L 238.062243 19.297624 
L 238.197516 19.329254 
L 238.332789 19.297647 
L 238.468062 19.329232 
L 238.603334 19.29767 
L 238.738607 19.329209 
L 238.87388 19.297693 
L 239.009153 19.329186 
L 239.144425 19.297715 
L 239.279698 19.329164 
L 239.414971 19.297738 
L 239.550243 19.329141 
L 239.685516 19.297761 
L 239.820789 19.329118 
L 239.956062 19.297783 
L 240.091334 19.329095 
L 240.226607 19.297806 
L 240.36188 19.329073 
L 240.497153 19.297828 
L 240.632425 19.32905 
L 240.767698 19.297851 
L 240.902971 19.329028 
L 241.038243 19.297874 
L 241.173516 19.329005 
L 241.308789 19.297896 
L 241.444062 19.328982 
L 241.579334 19.297918 
L 241.714607 19.32896 
L 241.84988 19.297941 
L 241.985153 19.328938 
L 242.120425 19.297963 
L 242.255698 19.328916 
L 242.390971 19.297986 
L 242.526243 19.328893 
L 242.661516 19.298008 
L 242.796789 19.328871 
L 242.932062 19.29803 
L 243.067334 19.328849 
L 243.202607 19.298052 
L 243.33788 19.328826 
L 243.473153 19.298074 
L 243.608425 19.328804 
L 243.743698 19.298096 
L 243.878971 19.328782 
L 244.014243 19.298119 
L 244.149516 19.32876 
L 244.284789 19.298141 
L 244.420062 19.328738 
L 244.555334 19.298163 
L 244.690607 19.328716 
L 244.82588 19.298185 
L 244.961153 19.328694 
L 245.096425 19.298207 
L 245.231698 19.328672 
L 245.366971 19.298229 
L 245.502243 19.32865 
L 245.637516 19.298251 
L 245.772789 19.328628 
L 245.908062 19.298273 
L 246.043334 19.328606 
L 246.178607 19.298295 
L 246.31388 19.328584 
L 246.449153 19.298317 
L 246.584425 19.328562 
L 246.719698 19.298339 
L 246.854971 19.32854 
L 246.990243 19.29836 
L 247.125516 19.328519 
L 247.260789 19.298382 
L 247.396062 19.328497 
L 247.531334 19.298404 
L 247.666607 19.328475 
L 247.80188 19.298426 
L 247.937153 19.328454 
L 248.072425 19.298448 
L 248.207698 19.328432 
L 248.342971 19.298469 
L 248.478243 19.328411 
L 248.613516 19.298491 
L 248.748789 19.328389 
L 248.884062 19.298512 
L 249.019334 19.328367 
L 249.154607 19.298534 
L 249.28988 19.328345 
L 249.425153 19.298555 
L 249.560425 19.328324 
L 249.695698 19.298577 
L 249.830971 19.328303 
L 249.966243 19.298599 
L 250.101516 19.328282 
L 250.236789 19.29862 
L 250.372062 19.32826 
L 250.507334 19.298641 
L 250.642607 19.328238 
L 250.77788 19.298662 
L 250.913153 19.328217 
L 251.048425 19.298684 
L 251.183698 19.328196 
L 251.318971 19.298705 
L 251.454243 19.328175 
L 251.589516 19.298726 
L 251.724789 19.328153 
L 251.860062 19.298747 
L 251.995334 19.328132 
L 252.130607 19.298769 
L 252.26588 19.328111 
L 252.401153 19.29879 
L 252.536425 19.32809 
L 252.671698 19.298811 
L 252.806971 19.328068 
L 252.942243 19.298832 
L 253.077516 19.328048 
L 253.212789 19.298854 
L 253.348062 19.328027 
L 253.483334 19.298875 
L 253.618607 19.328005 
L 253.75388 19.298895 
L 253.889153 19.327985 
L 254.024425 19.298917 
L 254.159698 19.327964 
L 254.294971 19.298937 
L 254.430243 19.327942 
L 254.565516 19.298958 
L 254.700789 19.327922 
L 254.836062 19.29898 
L 254.971334 19.327901 
L 255.106607 19.299 
L 255.24188 19.32788 
L 255.377153 19.299022 
L 255.512425 19.327859 
L 255.647698 19.299042 
L 255.782971 19.327838 
L 255.918243 19.299063 
L 256.053516 19.327818 
L 256.188789 19.299084 
L 256.324062 19.327797 
L 256.459334 19.299104 
L 256.594607 19.327776 
L 256.72988 19.299125 
L 256.865153 19.327755 
L 257.000425 19.299145 
L 257.135698 19.327735 
L 257.270971 19.299167 
L 257.406243 19.327714 
L 257.541516 19.299187 
L 257.676789 19.327694 
L 257.812062 19.299208 
L 257.947334 19.327673 
L 258.082607 19.299228 
L 258.21788 19.327653 
L 258.353153 19.299249 
L 258.488425 19.327632 
L 258.623698 19.299269 
L 258.758971 19.327612 
L 258.894243 19.29929 
L 259.029516 19.327591 
L 259.164789 19.29931 
L 259.300062 19.327571 
L 259.435334 19.29933 
L 259.570607 19.32755 
L 259.70588 19.299351 
L 259.841153 19.32753 
L 259.976425 19.299371 
L 260.111698 19.32751 
L 260.246971 19.299392 
L 260.382243 19.327489 
L 260.517516 19.299411 
L 260.652789 19.327469 
L 260.788062 19.299432 
L 260.923334 19.327449 
L 261.058607 19.299453 
L 261.19388 19.327428 
L 261.329153 19.299472 
L 261.464425 19.327409 
L 261.599698 19.299493 
L 261.734971 19.327388 
L 261.870243 19.299513 
L 262.005516 19.327368 
L 262.140789 19.299533 
L 262.276062 19.327348 
L 262.411334 19.299553 
L 262.546607 19.327328 
L 262.68188 19.299573 
L 262.817153 19.327308 
L 262.952425 19.299593 
L 263.087698 19.327288 
L 263.222971 19.299613 
L 263.358243 19.327268 
L 263.493516 19.299633 
L 263.628789 19.327248 
L 263.764062 19.299653 
L 263.899334 19.327228 
L 264.034607 19.299673 
L 264.16988 19.327209 
L 264.305153 19.299693 
L 264.440425 19.327189 
L 264.575698 19.299713 
L 264.710971 19.327169 
L 264.846243 19.299733 
L 264.981516 19.327149 
L 265.116789 19.299752 
L 265.252062 19.327129 
L 265.387334 19.299772 
L 265.522607 19.32711 
L 265.65788 19.299792 
L 265.793153 19.32709 
L 265.928425 19.299812 
L 266.063698 19.32707 
L 266.198971 19.299832 
L 266.334243 19.32705 
L 266.469516 19.299851 
L 266.604789 19.32703 
L 266.740062 19.29987 
L 266.875334 19.327011 
L 267.010607 19.29989 
L 267.14588 19.326992 
L 267.281153 19.29991 
L 267.416425 19.326972 
L 267.551698 19.299929 
L 267.686971 19.326953 
L 267.822243 19.299949 
L 267.957516 19.326933 
L 268.092789 19.299968 
L 268.228062 19.326913 
L 268.363334 19.299988 
L 268.498607 19.326894 
L 268.63388 19.300007 
L 268.769153 19.326874 
L 268.904425 19.300027 
L 269.039698 19.326855 
L 269.174971 19.300046 
L 269.310243 19.326836 
L 269.445516 19.300065 
L 269.580789 19.326816 
L 269.716062 19.300084 
L 269.851334 19.326797 
L 269.986607 19.300104 
L 270.12188 19.326778 
L 270.257153 19.300123 
L 270.392425 19.326758 
L 270.527698 19.300142 
L 270.662971 19.326739 
L 270.798243 19.300161 
L 270.933516 19.32672 
L 271.068789 19.30018 
L 271.204062 19.326701 
L 271.339334 19.3002 
L 271.474607 19.326682 
L 271.60988 19.300219 
L 271.745153 19.326663 
L 271.880425 19.300238 
L 272.015698 19.326644 
L 272.150971 19.300257 
L 272.286243 19.326625 
L 272.421516 19.300276 
L 272.556789 19.326606 
L 272.692062 19.300296 
L 272.827334 19.326587 
L 272.962607 19.300315 
L 273.09788 19.326568 
L 273.233153 19.300333 
L 273.368425 19.326549 
L 273.503698 19.300352 
L 273.638971 19.32653 
L 273.774243 19.300371 
L 273.909516 19.326511 
L 274.044789 19.30039 
L 274.180062 19.326492 
L 274.315334 19.300409 
L 274.450607 19.326473 
L 274.58588 19.300427 
L 274.721153 19.326455 
L 274.856425 19.300447 
L 274.991698 19.326436 
L 275.126971 19.300465 
L 275.262243 19.326417 
L 275.397516 19.300484 
L 275.532789 19.326399 
L 275.668062 19.300503 
L 275.803334 19.326379 
L 275.938607 19.300521 
L 276.07388 19.326361 
L 276.209153 19.30054 
L 276.344425 19.326342 
L 276.479698 19.300559 
L 276.614971 19.326324 
L 276.750243 19.300577 
L 276.885516 19.326305 
L 277.020789 19.300596 
L 277.156062 19.326286 
L 277.291334 19.300614 
L 277.426607 19.326268 
L 277.56188 19.300633 
L 277.697153 19.32625 
L 277.832425 19.300652 
L 277.967698 19.326231 
L 278.102971 19.30067 
L 278.238243 19.326212 
L 278.373516 19.300688 
L 278.508789 19.326194 
L 278.644062 19.300707 
L 278.779334 19.326176 
L 278.914607 19.300725 
L 279.04988 19.326157 
L 279.185153 19.300743 
L 279.34748 19.300754 
L 279.536862 19.326124 
L 279.726243 19.30078 
L 279.915625 19.326099 
L 280.105007 19.300806 
L 280.294389 19.326073 
L 280.483771 19.300831 
L 280.673153 19.326047 
L 280.862534 19.300857 
L 281.051916 19.326023 
L 281.241298 19.300883 
L 281.43068 19.325997 
L 281.620062 19.300908 
L 281.809443 19.325971 
L 281.998825 19.300933 
L 282.188207 19.325946 
L 282.377589 19.300958 
L 282.566971 19.325921 
L 282.756353 19.300984 
L 282.945734 19.325896 
L 283.135116 19.301009 
L 283.324498 19.325871 
L 283.51388 19.301034 
L 283.703262 19.325846 
L 283.892643 19.301059 
L 284.082025 19.32582 
L 284.271407 19.301084 
L 284.460789 19.325795 
L 284.650171 19.301109 
L 284.839553 19.32577 
L 285.028934 19.301134 
L 285.218316 19.325745 
L 285.407698 19.301159 
L 285.59708 19.325721 
L 285.786462 19.301184 
L 285.975843 19.325696 
L 286.165225 19.301209 
L 286.354607 19.325671 
L 286.543989 19.301233 
L 286.733371 19.325646 
L 286.922753 19.301258 
L 287.112134 19.325622 
L 287.301516 19.301283 
L 287.490898 19.325597 
L 287.68028 19.301307 
L 287.869662 19.325572 
L 288.059043 19.301332 
L 288.248425 19.325548 
L 288.437807 19.301356 
L 288.627189 19.325524 
L 288.816571 19.30138 
L 289.005953 19.325499 
L 289.195334 19.301405 
L 289.384716 19.325475 
L 289.574098 19.30143 
L 289.76348 19.325451 
L 289.952862 19.301454 
L 290.142243 19.325427 
L 290.331625 19.301478 
L 290.521007 19.325402 
L 290.710389 19.301502 
L 290.899771 19.325378 
L 291.089153 19.301526 
L 291.278534 19.325354 
L 291.467916 19.30155 
L 291.657298 19.32533 
L 291.84668 19.301575 
L 292.036062 19.325306 
L 292.225443 19.301598 
L 292.414825 19.325282 
L 292.604207 19.301622 
L 292.793589 19.325258 
L 292.982971 19.301646 
L 293.172353 19.325235 
L 293.361734 19.30167 
L 293.551116 19.32521 
L 293.740498 19.301694 
L 293.92988 19.325187 
L 294.119262 19.301718 
L 294.308643 19.325163 
L 294.498025 19.301742 
L 294.687407 19.325139 
L 294.876789 19.301765 
L 295.066171 19.325116 
L 295.255553 19.301789 
L 295.444934 19.325092 
L 295.634316 19.301812 
L 295.823698 19.325068 
L 296.01308 19.301836 
L 296.202462 19.325045 
L 296.391843 19.301859 
L 296.581225 19.325021 
L 296.770607 19.301883 
L 296.959989 19.324998 
L 297.149371 19.301906 
L 297.338753 19.324975 
L 297.528134 19.301929 
L 297.717516 19.324952 
L 297.906898 19.301953 
L 298.09628 19.324928 
L 298.285662 19.301976 
L 298.475043 19.324905 
L 298.664425 19.301999 
L 298.853807 19.324882 
L 299.043189 19.302023 
L 299.232571 19.324858 
L 299.421953 19.302045 
L 299.611334 19.324836 
L 299.800716 19.302069 
L 299.990098 19.324813 
L 300.17948 19.302091 
L 300.368862 19.32479 
L 300.558243 19.302114 
L 300.747625 19.324767 
L 300.937007 19.302138 
L 301.126389 19.324744 
L 301.315771 19.30216 
L 301.505153 19.324721 
L 301.694534 19.302183 
L 301.883916 19.324698 
L 302.073298 19.302206 
L 302.26268 19.324675 
L 302.452062 19.302229 
L 302.641443 19.324653 
L 302.830825 19.302251 
L 303.020207 19.32463 
L 303.209589 19.302274 
L 303.398971 19.324608 
L 303.588353 19.302297 
L 303.777734 19.324585 
L 303.967116 19.302319 
L 304.156498 19.324562 
L 304.34588 19.302341 
L 304.535262 19.32454 
L 304.724643 19.302364 
L 304.914025 19.324518 
L 305.103407 19.302386 
L 305.292789 19.324496 
L 305.482171 19.302409 
L 305.671553 19.324473 
L 305.860934 19.302431 
L 306.050316 19.324451 
L 306.239698 19.302454 
L 306.42908 19.324428 
L 306.618462 19.302476 
L 306.807843 19.324406 
L 306.997225 19.302498 
L 307.186607 19.324384 
L 307.375989 19.30252 
L 307.565371 19.324362 
L 307.754753 19.302542 
L 307.944134 19.32434 
L 308.133516 19.302564 
L 308.322898 19.324318 
L 308.51228 19.302586 
L 308.701662 19.324296 
L 308.891043 19.302608 
L 309.080425 19.324274 
L 309.269807 19.30263 
L 309.459189 19.324252 
L 309.648571 19.302651 
L 309.837953 19.32423 
L 310.027334 19.302673 
L 310.216716 19.324208 
L 310.406098 19.302695 
L 310.59548 19.324187 
L 310.784862 19.302717 
L 310.974243 19.324165 
L 311.163625 19.302739 
L 311.353007 19.324143 
L 311.542389 19.302761 
L 311.731771 19.324122 
L 311.921153 19.302782 
L 312.110534 19.3241 
L 312.299916 19.302804 
L 312.489298 19.324079 
L 312.67868 19.302825 
L 312.868062 19.324057 
L 313.057443 19.302846 
L 313.246825 19.324035 
L 313.436207 19.302868 
L 313.625589 19.324014 
L 313.814971 19.30289 
L 314.004353 19.323993 
L 314.193734 19.302911 
L 314.383116 19.323972 
L 314.572498 19.302932 
L 314.76188 19.32395 
L 314.951262 19.302953 
L 315.140643 19.323929 
L 315.330025 19.302975 
L 315.519407 19.323908 
L 315.708789 19.302996 
L 315.898171 19.323886 
L 316.087553 19.303017 
L 316.276934 19.323866 
L 316.466316 19.303038 
L 316.655698 19.323845 
L 316.84508 19.303059 
L 317.034462 19.323823 
L 317.223843 19.30308 
L 317.413225 19.323802 
L 317.602607 19.303101 
L 317.791989 19.323782 
L 317.981371 19.303122 
L 318.170753 19.32376 
L 318.360134 19.303143 
L 318.549516 19.32374 
L 318.738898 19.303164 
L 318.92828 19.323719 
L 319.117662 19.303184 
L 319.307043 19.323698 
L 319.496425 19.303206 
L 319.685807 19.323678 
L 319.875189 19.303226 
L 320.064571 19.323657 
L 320.253953 19.303247 
L 320.443334 19.323637 
L 320.632716 19.303267 
L 320.822098 19.323615 
L 321.01148 19.303288 
L 321.200862 19.323595 
L 321.390243 19.303308 
L 321.579625 19.323574 
L 321.769007 19.303329 
L 321.958389 19.323554 
L 322.147771 19.303349 
L 322.337153 19.323534 
L 322.526534 19.30337 
L 322.715916 19.323513 
L 322.905298 19.30339 
L 323.09468 19.323493 
L 323.284062 19.303411 
L 323.473443 19.323472 
L 323.662825 19.303431 
L 323.852207 19.323453 
L 324.041589 19.303451 
L 324.230971 19.323432 
L 324.420353 19.303472 
L 324.609734 19.323412 
L 324.799116 19.303492 
L 324.988498 19.323392 
L 325.17788 19.303512 
L 325.367262 19.323372 
L 325.556643 19.303532 
L 325.746025 19.323351 
L 325.935407 19.303552 
L 326.124789 19.323332 
L 326.314171 19.303572 
L 326.503553 19.323312 
L 326.692934 19.303592 
L 326.882316 19.323291 
L 327.071698 19.303612 
L 327.26108 19.323271 
L 327.450462 19.303632 
L 327.639843 19.323252 
L 327.829225 19.303651 
L 328.018607 19.323232 
L 328.207989 19.303671 
L 328.397371 19.323212 
L 328.586753 19.303691 
L 328.776134 19.323192 
L 328.965516 19.303711 
L 329.154898 19.323173 
L 329.34428 19.30373 
L 329.533662 19.323153 
L 329.723043 19.30375 
L 329.912425 19.323134 
L 330.101807 19.30377 
L 330.291189 19.323114 
L 330.480571 19.303789 
L 330.669953 19.323094 
L 330.859336 19.303809 
L 331.048718 19.323075 
L 331.238099 19.303829 
L 331.427481 19.323055 
L 331.616863 19.303848 
L 331.806245 19.323036 
L 331.995627 19.303868 
L 332.185008 19.323016 
L 332.37439 19.303887 
L 332.563772 19.322997 
L 332.753154 19.303906 
L 332.942536 19.322978 
L 333.131918 19.303925 
L 333.321299 19.322958 
L 333.510681 19.303945 
L 333.700063 19.322939 
L 333.889445 19.303964 
L 334.078827 19.32292 
L 334.268208 19.303983 
L 334.45759 19.322901 
L 334.646972 19.304002 
L 334.836354 19.322882 
L 335.025736 19.304021 
L 335.215118 19.322862 
L 335.404499 19.304041 
L 335.593881 19.322843 
L 335.783263 19.30406 
L 335.972645 19.322825 
L 336.162027 19.304079 
L 336.351408 19.322806 
L 336.54079 19.304098 
L 336.730172 19.322787 
L 336.919554 19.304116 
L 337.108936 19.322768 
L 337.298318 19.304135 
L 337.487699 19.322749 
L 337.677081 19.304154 
L 337.866463 19.32273 
L 338.055845 19.304172 
L 338.245227 19.322711 
L 338.434608 19.304192 
L 338.62399 19.322693 
L 338.813372 19.304211 
L 339.002754 19.322674 
L 339.192136 19.304229 
L 339.381518 19.322656 
L 339.570899 19.304248 
L 339.760281 19.322637 
L 339.949663 19.304266 
L 340.139045 19.322618 
L 340.328427 19.304285 
L 340.517808 19.322599 
L 340.70719 19.304304 
L 340.896572 19.322581 
L 341.085954 19.304322 
L 341.275336 19.322563 
L 341.464718 19.30434 
L 341.654099 19.322544 
L 341.843481 19.304359 
L 342.032863 19.322526 
L 342.222245 19.304377 
L 342.411627 19.322508 
L 342.601008 19.304395 
L 342.79039 19.322489 
L 342.979772 19.304414 
L 343.169154 19.322471 
L 343.358536 19.304432 
L 343.547918 19.322453 
L 343.737299 19.30445 
L 343.926681 19.322434 
L 344.116063 19.304469 
L 344.305445 19.322416 
L 344.494827 19.304487 
L 344.684208 19.322398 
L 344.87359 19.304505 
L 345.062972 19.32238 
L 345.252354 19.304523 
L 345.441736 19.322362 
L 345.631118 19.304541 
L 345.820499 19.322343 
L 346.009881 19.304559 
L 346.199263 19.322326 
L 346.388645 19.304577 
L 346.578027 19.322308 
L 346.767408 19.304595 
L 346.95679 19.32229 
L 347.146172 19.304613 
L 347.335554 19.322272 
L 347.524936 19.304631 
L 347.714318 19.322254 
L 347.903699 19.304649 
L 348.093081 19.322236 
L 348.282463 19.304667 
L 348.471845 19.322219 
L 348.661227 19.304684 
L 348.850608 19.322201 
L 349.03999 19.304702 
L 349.229372 19.322183 
L 349.418754 19.304719 
L 349.608136 19.322165 
L 349.797518 19.304738 
L 349.986899 19.322148 
L 350.176281 19.304755 
L 350.365663 19.32213 
L 350.555045 19.304773 
L 350.744427 19.322113 
L 350.933808 19.30479 
L 351.12319 19.322095 
L 351.312572 19.304807 
L 351.501954 19.322077 
L 351.691336 19.304825 
L 351.880718 19.322061 
L 352.070099 19.304842 
L 352.259481 19.322043 
L 352.448863 19.30486 
L 352.638245 19.322025 
L 352.827627 19.304878 
L 353.017008 19.322008 
L 353.20639 19.304895 
L 353.395772 19.321991 
L 353.585154 19.304912 
L 353.774536 19.321973 
L 353.963918 19.304929 
L 354.153299 19.321956 
L 354.342681 19.304947 
L 354.532063 19.321939 
L 354.721445 19.304963 
L 354.910827 19.321922 
L 355.100208 19.304981 
L 355.28959 19.321904 
L 355.478972 19.304998 
L 355.668354 19.321888 
L 355.857736 19.305015 
L 356.047118 19.321871 
L 356.236499 19.305032 
L 356.425881 19.321853 
L 356.615263 19.305049 
L 356.804645 19.321836 
L 356.994027 19.305066 
L 357.183408 19.321819 
L 357.37279 19.305083 
L 357.562172 19.321802 
L 357.751554 19.305101 
L 357.940936 19.321786 
L 358.130318 19.305117 
L 358.319699 19.321769 
L 358.509081 19.305134 
L 358.698463 19.321752 
L 358.887845 19.305151 
L 359.077227 19.321735 
L 359.266608 19.305167 
L 359.45599 19.321718 
L 359.645372 19.305184 
L 359.834754 19.321701 
L 360.024136 19.305201 
L 360.213518 19.321684 
L 360.402899 19.305218 
L 360.592281 19.321668 
L 360.781663 19.305235 
L 360.971045 19.321651 
L 361.160427 19.305251 
L 361.349808 19.321635 
L 361.53919 19.305268 
L 361.728572 19.321618 
L 361.917954 19.305284 
L 362.107336 19.321602 
L 362.296718 19.305301 
L 362.486099 19.321586 
L 362.675481 19.305317 
L 362.864863 19.321569 
L 363.054245 19.305334 
L 363.243627 19.321553 
L 363.433008 19.30535 
L 363.62239 19.321536 
L 363.865881 19.305369 
L 364.109372 19.321515 
L 364.352863 19.30539 
L 364.596354 19.321494 
L 364.839845 19.305411 
L 365.083336 19.321473 
L 365.326827 19.305432 
L 365.570318 19.321452 
L 365.813808 19.305452 
L 366.057299 19.321432 
L 366.30079 19.305474 
L 366.544281 19.32141 
L 366.787772 19.305494 
L 367.031263 19.32139 
L 367.274754 19.305515 
L 367.518245 19.321369 
L 367.761736 19.305535 
L 368.005227 19.321349 
L 368.248718 19.305556 
L 368.492208 19.321328 
L 368.735699 19.305576 
L 368.97919 19.321308 
L 369.222681 19.305597 
L 369.466172 19.321287 
L 369.709663 19.305617 
L 369.953154 19.321267 
L 370.196645 19.305638 
L 370.440136 19.321246 
L 370.683627 19.305658 
L 370.927118 19.321226 
L 371.170608 19.305678 
L 371.414099 19.321206 
L 371.65759 19.305699 
L 371.901081 19.321185 
L 372.144572 19.305719 
L 372.388063 19.321165 
L 372.631554 19.305739 
L 372.875045 19.321146 
L 373.118536 19.305759 
L 373.362027 19.321125 
L 373.605518 19.305779 
L 373.849008 19.321105 
L 374.092499 19.305799 
L 374.33599 19.321086 
L 374.579481 19.305819 
L 374.822972 19.321066 
L 375.066463 19.305839 
L 375.309954 19.321046 
L 375.553445 19.305858 
L 375.796936 19.321026 
L 376.040427 19.305878 
L 376.283918 19.321006 
L 376.527408 19.305898 
L 376.770899 19.320987 
L 377.01439 19.305918 
L 377.257881 19.320967 
L 377.501372 19.305938 
L 377.744863 19.320947 
L 377.988354 19.305957 
L 378.231845 19.320928 
L 378.475336 19.305976 
L 378.718827 19.320908 
L 378.962318 19.305996 
L 379.205808 19.320889 
L 379.449299 19.306015 
L 379.69279 19.320869 
L 379.936281 19.306034 
L 380.179772 19.32085 
L 380.423263 19.306054 
L 380.666754 19.320831 
L 380.910245 19.306073 
L 381.153736 19.320812 
L 381.397227 19.306092 
L 381.640718 19.320792 
L 381.884208 19.306111 
L 382.127699 19.320773 
L 382.37119 19.30613 
L 382.614681 19.320754 
L 382.858172 19.306149 
L 383.101663 19.320735 
L 383.345154 19.306169 
L 383.588645 19.320716 
L 383.832136 19.306188 
L 384.075627 19.320698 
L 384.319118 19.306207 
L 384.562608 19.320679 
L 384.806099 19.306225 
L 384.941372 19.320664 
L 384.946648 19.306236 
" clip-path="url(#pd5c0ceb395)" style="fill: none; stroke: #1f77b4; stroke-width: 1.5; stroke-linecap: square"/>
   </g>
   <g id="patch_3">
    <path d="M 44.059375 273.312 
L 44.059375 7.2 
" style="fill: none; stroke: #000000; stroke-width: 0.8; stroke-linejoin: miter; stroke-linecap: square"/>
   </g>
   <g id="patch_4">
    <path d="M 401.179375 273.312 
L 401.179375 7.2 
" style="fill: none; stroke: #000000; stroke-width: 0.8; stroke-linejoin: miter; stroke-linecap: square"/>
   </g>
   <g id="patch_5">
    <path d="M 44.059375 273.312 
L 401.179375 273.312 
" style="fill: none; stroke: #000000; stroke-width: 0.8; stroke-linejoin: miter; stroke-linecap: square"/>
   </g>
   <g id="patch_6">
    <path d="M 44.059375 7.2 
L 401.179375 7.2 
" style="fill: none; stroke: #000000; stroke-width: 0.8; stroke-linejoin: miter; stroke-linecap: square"/>
   </g>
  </g>
 </g>
 <defs>
  <clipPath id="pd5c0ceb395">
   <rect x="44.059375" y="7.2" width="357.12" height="266.112"/>
  </clipPath>
 </defs>
</svg>
