<svg xmlns="http://www.w3.org/2000/svg" xmlns:xlink="http://www.w3.org/1999/xlink" width="1000" height="700" version="1.1">
<style type="text/css">
.l0{
  fill: #000000;
  stroke: #000000;
  stroke-linecap:round;
  stroke-linejoin:round;
  stroke-width: 0.620616;
}
.l1{
  fill: #00ccee;
  stroke: #00ccee;
  stroke-linecap:round;
  stroke-linejoin:round;
  stroke-width: 0.620616;
}
.l2{
  fill: #4f4f4f; fill-opacity: 0.2;
  stroke: #4f4f4f;
  stroke-linecap:round;
  stroke-linejoin:round;
  stroke-width: 0.620616;
}
.l3{
  fill: #cccccc; fill-opacity: 0.5;
  stroke: #cccccc;
  stroke-linecap:round;
  stroke-linejoin:round;
  stroke-width: 0.620616;
}
.l4{
  fill: #88dd00;
  stroke: #88dd00;
  stroke-linecap:round;
  stroke-linejoin:round;
  stroke-width: 0.620616;
}
.l5{
  fill: #bb2200;
  stroke: #bb2200;
  stroke-linecap:round;
  stroke-linejoin:round;
  stroke-width: 0.620616;
}
.l6{
  fill: #00ccee; fill-opacity: 0.5;
  stroke: #00ccee;
  stroke-linecap:round;
  stroke-linejoin:round;
  stroke-width: 0.620616;
}
.l7{
  fill: #ff0000; fill-opacity: 0.5;
  stroke: #ff0000;
  stroke-linecap:round;
  stroke-linejoin:round;
  stroke-width: 0.620616;
}
.l8{
  fill: #ffff00; fill-opacity: 0.5;
  stroke: #ffff00;
  stroke-linecap:round;
  stroke-linejoin:round;
  stroke-width: 0.620616;
}
.l9{
  fill: #ffffff; fill-opacity: 0.5;
  stroke: #ffffff;
  stroke-linecap:round;
  stroke-linejoin:round;
  stroke-width: 0.620616;
}
.l10{
  fill: #ff00ff;
  stroke: #ff00ff;
  stroke-linecap:round;
  stroke-linejoin:round;
  stroke-width: 0.620616;
}
.l11{
  fill: #00ff00; fill-opacity: 0.5;
  stroke: #00ff00;
  stroke-linecap:round;
  stroke-linejoin:round;
  stroke-width: 0.620616;
}
.l12{
  fill: #0000ff; fill-opacity: 0.5;
  stroke: #0000ff;
  stroke-linecap:round;
  stroke-linejoin:round;
  stroke-width: 0.620616;
}
.l13{
  fill: #aaaa00; fill-opacity: 0.5;
  stroke: #aaaa00;
  stroke-linecap:round;
  stroke-linejoin:round;
  stroke-width: 0.620616;
}
.l14{
  fill: #aaccaa; fill-opacity: 0.2;
  stroke: #aaccaa;
  stroke-linecap:round;
  stroke-linejoin:round;
  stroke-width: 0.620616;
}
.l15{
  fill: #ff7777; fill-opacity: 0.5;
  stroke: #ff7777;
  stroke-linecap:round;
  stroke-linejoin:round;
  stroke-width: 0.620616;
}
.l16{
  fill: #bfff81; fill-opacity: 0.5;
  stroke: #bfff81;
  stroke-linecap:round;
  stroke-linejoin:round;
  stroke-width: 0.620616;
}
.l17{
  fill: #00ffcc; fill-opacity: 0.2;
  stroke: #00ffcc;
  stroke-linecap:round;
  stroke-linejoin:round;
  stroke-width: 0.620616;
}
.l18{
  fill: #ce0097; fill-opacity: 0.5;
  stroke: #ce0097;
  stroke-linecap:round;
  stroke-linejoin:round;
  stroke-width: 0.620616;
}
.l19{
  fill: #d2d46b; fill-opacity: 0.2;
  stroke: #d2d46b;
  stroke-linecap:round;
  stroke-linejoin:round;
  stroke-width: 0.620616;
}
.l20{
  fill: #ef6158; fill-opacity: 0.2;
  stroke: #ef6158;
  stroke-linecap:round;
  stroke-linejoin:round;
  stroke-width: 0.620616;
}
.l21{
  fill: #fdb200; fill-opacity: 0.2;
  stroke: #fdb200;
  stroke-linecap:round;
  stroke-linejoin:round;
  stroke-width: 0.620616;
}
text {font-family: Sans-Serif;}
</style>
<rect class="l0" x="0" y="0" width="1000" height="700"/>
<text fill="#cccccc"  xml:space="preserve" font-size="11.9526" transform="translate(250.604, 160.948)" >Process compensation</text>
<text fill="#00ccee"  xml:space="preserve" font-size="9.8609" transform="translate(89.614, 452.477)" >avdd</text>
<text fill="#00ccee"  xml:space="preserve" font-size="9.8609" transform="translate(175.9, 481.568)" >por</text>
<text fill="#00ccee"  xml:space="preserve" font-size="9.8609" transform="translate(89.614, 469.716)" >avss</text>
<text fill="#00ccee"  xml:space="preserve" font-size="9.8609" transform="translate(89.614, 435.238)" >dvdd</text>
<text fill="#00ccee"  xml:space="preserve" font-size="9.8609" transform="translate(175.9, 498.808)" >porb</text>
<text fill="#00ccee"  xml:space="preserve" font-size="9.8609" transform="translate(61.9292, 504.554)" >vbg</text>
<text fill="#00ccee"  xml:space="preserve" font-size="9.8609" transform="translate(175.9, 516.047)" >porb_h[1:0]</text>
<text fill="#00ccee"  xml:space="preserve" font-size="9.8609" transform="translate(89.614, 486.956)" >dvss</text>
<text fill="#00ccee"  xml:space="preserve" font-size="8.06801" transform="translate(295.379, 302.603)" >Vinn</text>
<text fill="#00ccee"  xml:space="preserve" font-size="8.06801" transform="translate(295.379, 268.124)" >Vinp</text>
<text fill="#00ccee"  xml:space="preserve" font-size="8.06801" transform="translate(183.084, 268.124)" >Vinp</text>
<text fill="#00ccee"  xml:space="preserve" font-size="8.06801" transform="translate(183.084, 314.096)" >Vinn</text>
<text fill="#00ccee"  xml:space="preserve" font-size="8.06801" transform="translate(407.195, 285.364)" >RST</text>
<text fill="#00ccee"  xml:space="preserve" font-size="8.06801" transform="translate(562.349, 302.603)" >porb_h[1:0]</text>
<text fill="#00ccee"  xml:space="preserve" font-size="8.06801" transform="translate(562.349, 291.11)" >porb</text>
<text fill="#00ccee"  xml:space="preserve" font-size="8.06801" transform="translate(562.349, 279.617)" >por</text>
<text fill="#00ccee"  xml:space="preserve" font-size="8.06801" transform="translate(281.886, 325.589)" >avdd</text>
<text fill="#00ccee"  xml:space="preserve" font-size="8.06801" transform="translate(293.379, 337.082)" >dvdd</text>
<text fill="#00ccee"  xml:space="preserve" font-size="8.06801" transform="translate(425.547, 365.814)" >avdd</text>
<text fill="#00ccee"  xml:space="preserve" font-size="8.06801" transform="translate(430.547, 354.321)" >vbg</text>
<text fill="#00ccee"  xml:space="preserve" font-size="8.06801" transform="translate(425.547, 331.335)" >dvdd</text>
<text fill="#00ccee"  xml:space="preserve" font-size="8.06801" transform="translate(161.21, 107.224)" >avdd</text>
<text fill="#00ccee"  xml:space="preserve" font-size="8.06801" transform="translate(295.379, 348.575)" >avss</text>
<text fill="#00ccee"  xml:space="preserve" font-size="8.06801" transform="translate(427.547, 342.828)" >dvss</text>
<text fill="#00ccee"  xml:space="preserve" font-size="8.06801" transform="translate(157.464, 360.067)" >avss</text>
<text fill="#00ccee"  xml:space="preserve" font-size="8.06801" transform="translate(200.323, 158.942)" >avss</text>
<text fill="#00ccee"  xml:space="preserve" font-size="9.8609" transform="translate(185.957, 200.352)" >Vproc</text>
<text fill="#cccccc"  xml:space="preserve" font-size="11.9526" transform="translate(241.985, 589.059)" >         /home/efabless/analog_ip/cheetah_v3_analog/dependencies/sky130_sw_ip__bgrref_por/xschem/sky130_sw_ip__bgrref_por.sch</text>
<text fill="#cccccc"  xml:space="preserve" font-size="11.9526" transform="translate(241.985, 571.819)" >Stephen Wu</text>
<text fill="#cccccc"  xml:space="preserve" font-size="11.9526" transform="translate(575.081, 571.819)" >2024-08-08  15:24:05</text>
<text fill="#cccccc"  xml:space="preserve" font-size="29.8815" transform="translate(109.816, 588.099)" >SCHEM</text>
<text fill="#cccccc"  xml:space="preserve" font-size="8.96445" transform="translate(333.066, 258.223)" >comparator_final</text>
<text fill="#cccccc"  xml:space="preserve" font-size="5.9763" transform="translate(368.406, 275.048)" >x1</text>
<text fill="#cccccc"  xml:space="preserve" font-size="5.9763" transform="translate(328.181, 305.504)" >-</text>
<text fill="#cccccc"  xml:space="preserve" font-size="5.9763" transform="translate(328.181, 276.772)" >+</text>
<text fill="#cccccc"  xml:space="preserve" font-size="5.9763" transform="translate(379.899, 288.88)" >RST</text>
<text fill="#cccccc"  xml:space="preserve" font-size="5.9763" transform="translate(328.181, 331.363)" >AVDD</text>
<text fill="#cccccc"  xml:space="preserve" font-size="5.9763" transform="translate(328.181, 354.349)" >VSS</text>
<text fill="#cccccc"  xml:space="preserve" font-size="5.9763" transform="translate(328.181, 342.856)" >DVDD</text>
<text fill="#ff0000"  xml:space="preserve" font-size="4.48223" transform="translate(170.027, 330.869)" >B</text>
<text fill="#cccccc"  xml:space="preserve" font-size="5.9763" transform="translate(190.267, 323.606)" >R1</text>
<text fill="#aaaa00"  xml:space="preserve" font-size="5.9763" transform="translate(190.267, 347.31)" >1 * 0.35 / 250</text>
<text fill="#cccccc"  xml:space="preserve" font-size="5.9763" transform="translate(190.267, 331.507)" >res_xhigh_po_0p35</text>
<text fill="#aaaa00"  xml:space="preserve" font-size="5.9763" transform="translate(190.267, 339.408)" >R=1.429e+06</text>
<text fill="#ff0000"  xml:space="preserve" font-size="4.48223" transform="translate(170.027, 284.897)" >B</text>
<text fill="#cccccc"  xml:space="preserve" font-size="5.9763" transform="translate(190.267, 277.634)" >R10</text>
<text fill="#aaaa00"  xml:space="preserve" font-size="5.9763" transform="translate(190.267, 301.338)" >1 * 0.35 / 9</text>
<text fill="#cccccc"  xml:space="preserve" font-size="5.9763" transform="translate(190.267, 285.535)" >res_xhigh_po_0p35</text>
<text fill="#aaaa00"  xml:space="preserve" font-size="5.9763" transform="translate(190.267, 293.437)" >R=5.143e+04</text>
<text fill="#ff0000"  xml:space="preserve" font-size="4.48223" transform="translate(170.027, 238.925)" >B</text>
<text fill="#cccccc"  xml:space="preserve" font-size="5.9763" transform="translate(190.267, 231.662)" >R12</text>
<text fill="#aaaa00"  xml:space="preserve" font-size="5.9763" transform="translate(190.267, 255.367)" >1 * 0.35 / 150</text>
<text fill="#cccccc"  xml:space="preserve" font-size="5.9763" transform="translate(190.267, 239.564)" >res_xhigh_po_0p35</text>
<text fill="#aaaa00"  xml:space="preserve" font-size="5.9763" transform="translate(190.267, 247.465)" >R=8.571e+05</text>
<text fill="#cccccc"  xml:space="preserve" font-size="8.96445" transform="translate(465.234, 269.716)" >delayPulse_final</text>
<text fill="#cccccc"  xml:space="preserve" font-size="5.9763" transform="translate(489.082, 321.02)" >x2</text>
<text fill="#cccccc"  xml:space="preserve" font-size="5.9763" transform="translate(460.35, 337.11)" >VCCL</text>
<text fill="#cccccc"  xml:space="preserve" font-size="5.9763" transform="translate(460.35, 348.603)" >VSS</text>
<text fill="#cccccc"  xml:space="preserve" font-size="5.9763" transform="translate(460.35, 360.095)" >Vbg</text>
<text fill="#cccccc"  xml:space="preserve" font-size="5.9763" transform="translate(460.35, 371.588)" >VCCH</text>
<text fill="#cccccc"  xml:space="preserve" font-size="5.9763" transform="translate(535.053, 285.392)" >por</text>
<text fill="#cccccc"  xml:space="preserve" font-size="5.9763" transform="translate(535.053, 296.885)" >porb</text>
<text fill="#cccccc"  xml:space="preserve" font-size="5.9763" transform="translate(512.068, 308.377)" >porb_h[1:0]</text>
<text fill="#cccccc"  xml:space="preserve" font-size="5.9763" transform="translate(164.027, 149.776)" >M2</text>
<text fill="#ff0000"  xml:space="preserve" font-size="4.48223" transform="translate(183.084, 175.715)" >S</text>
<text fill="#ff0000"  xml:space="preserve" font-size="4.48223" transform="translate(183.084, 150.461)" >D</text>
<text fill="#ff0000"  xml:space="preserve" font-size="4.48223" transform="translate(181.647, 159.912)" >B</text>
<text fill="#ff0000"  xml:space="preserve" font-size="4.48223" transform="translate(161.408, 159.912)" >G</text>
<text fill="#cccccc"  xml:space="preserve" font-size="5.9763" transform="translate(187.393, 155.132)" >nfet_05v0_nvt</text>
<text fill="#aaaa00"  xml:space="preserve" font-size="5.9763" transform="translate(188.112, 174.916)" >2 x 1 / 0.9</text>
<text fill="#aaaa00"  xml:space="preserve" font-size="5.9763" transform="translate(188.112, 167.733)" >nf=1</text>
<path class="l4" d="M325.308 259.278L394.265 288.01"/>
<path class="l4" d="M325.308 316.742L394.265 288.01"/>
<path class="l4" d="M325.308 259.278L325.308 351.221"/>
<path class="l4" d="M313.815 305.25L325.308 305.25"/>
<path class="l4" d="M313.815 270.771L325.308 270.771"/>
<path class="l4" d="M394.265 288.01L405.758 288.01"/>
<path class="l4" d="M313.815 351.221L325.308 351.221"/>
<path class="l4" d="M313.815 328.235L325.308 328.235"/>
<path class="l4" d="M313.815 339.728L325.308 339.728"/>
<path class="l4" d="M342.547 276.517L354.04 276.517"/>
<path class="l4" d="M342.547 276.517L342.547 299.503"/>
<path class="l4" d="M348.294 276.517L348.294 299.503"/>
<path class="l4" d="M336.801 299.503L348.294 299.503"/>
<path class="l4" d="M181.647 345.475L181.647 351.221"/>
<path class="l4" d="M181.647 345.475L185.957 344.038"/>
<path class="l4" d="M177.337 341.165L185.957 344.038"/>
<path class="l4" d="M177.337 341.165L185.957 338.292"/>
<path class="l4" d="M177.337 335.418L185.957 338.292"/>
<path class="l4" d="M177.337 335.418L185.957 332.545"/>
<path class="l4" d="M177.337 329.672L185.957 332.545"/>
<path class="l4" d="M177.337 329.672L185.957 326.799"/>
<path class="l4" d="M177.337 323.926L185.957 326.799"/>
<path class="l4" d="M177.337 323.926L181.647 322.489"/>
<path class="l4" d="M181.647 316.742L181.647 322.489"/>
<path class="l4" d="M181.647 299.503L181.647 305.25"/>
<path class="l4" d="M181.647 299.503L185.957 298.066"/>
<path class="l4" d="M177.337 295.193L185.957 298.066"/>
<path class="l4" d="M177.337 295.193L185.957 292.32"/>
<path class="l4" d="M177.337 289.447L185.957 292.32"/>
<path class="l4" d="M177.337 289.447L185.957 286.574"/>
<path class="l4" d="M177.337 283.7L185.957 286.574"/>
<path class="l4" d="M177.337 283.7L185.957 280.827"/>
<path class="l4" d="M177.337 277.954L185.957 280.827"/>
<path class="l4" d="M177.337 277.954L181.647 276.517"/>
<path class="l4" d="M181.647 270.771L181.647 276.517"/>
<path class="l4" d="M181.647 253.532L181.647 259.278"/>
<path class="l4" d="M181.647 253.532L185.957 252.095"/>
<path class="l4" d="M177.337 249.222L185.957 252.095"/>
<path class="l4" d="M177.337 249.222L185.957 246.348"/>
<path class="l4" d="M177.337 243.475L185.957 246.348"/>
<path class="l4" d="M177.337 243.475L185.957 240.602"/>
<path class="l4" d="M177.337 237.729L185.957 240.602"/>
<path class="l4" d="M177.337 237.729L185.957 234.856"/>
<path class="l4" d="M177.337 231.982L185.957 234.856"/>
<path class="l4" d="M177.337 231.982L181.647 230.546"/>
<path class="l4" d="M181.647 224.799L181.647 230.546"/>
<path class="l4" d="M445.983 288.01L457.476 288.01"/>
<path class="l4" d="M549.419 282.264L560.912 282.264"/>
<path class="l4" d="M445.983 333.982L457.476 333.982"/>
<path class="l4" d="M457.476 270.771L457.476 339.728"/>
<path class="l4" d="M457.476 328.235L457.476 368.46"/>
<path class="l4" d="M445.983 345.475L457.476 345.475"/>
<path class="l4" d="M445.983 356.968L457.476 356.968"/>
<path class="l4" d="M457.476 270.771L549.419 270.771"/>
<path class="l4" d="M457.476 322.489L549.419 322.489"/>
<path class="l4" d="M549.419 270.771L549.419 322.489"/>
<path class="l4" d="M463.223 282.264L480.462 282.264"/>
<path class="l4" d="M480.462 276.517L480.462 288.01"/>
<path class="l4" d="M480.462 276.517L491.955 282.264"/>
<path class="l4" d="M480.462 288.01L491.955 282.264"/>
<path class="l4" d="M463.223 305.25L480.462 305.25"/>
<path class="l4" d="M480.462 299.503L480.462 310.996"/>
<path class="l4" d="M480.462 299.503L491.955 305.25"/>
<path class="l4" d="M480.462 310.996L491.955 305.25"/>
<path class="l4" d="M491.955 282.264L509.194 282.264"/>
<path class="l4" d="M491.955 305.25L509.194 305.25"/>
<path class="l4" d="M509.194 276.517L509.194 310.996"/>
<path class="l4" d="M509.194 276.517L520.687 276.517"/>
<path class="l4" d="M520.687 276.517L520.687 310.996"/>
<path class="l4" d="M509.194 310.996L520.687 310.996"/>
<path class="l4" d="M520.687 293.757L526.434 293.757"/>
<path class="l4" d="M445.983 368.46L457.476 368.46"/>
<path class="l4" d="M549.419 293.757L560.912 293.757"/>
<path class="l4" d="M549.419 305.25L560.912 305.25"/>
<path class="l4" d="M181.647 144.349L181.647 151.532"/>
<path class="l4" d="M181.647 171.645L181.647 178.828"/>
<path class="l4" d="M174.464 151.532L181.647 151.532"/>
<path class="l4" d="M174.464 171.645L178.774 171.645"/>
<path class="l4" d="M158.661 161.588L168.717 161.588"/>
<path class="l4" d="M174.464 148.659L174.464 154.405"/>
<path class="l4" d="M174.464 168.771L174.464 174.518"/>
<path class="l4" d="M174.464 158.715L174.464 164.462"/>
<path class="l4" d="M178.774 170.208L181.647 171.645L178.774 173.081L178.774 170.208"/>
<path class="l4" style="fill:none;" d="M168.717 170.208L168.717 152.969L171.591 152.969L171.591 170.208L168.717 170.208"/>
<path class="l5" d="M101.197 566.713L101.017 566.892L100.838 567.072L100.658 567.252L100.478 567.431L100.299 567.611L100.119 567.79L99.9396 567.97L99.7601 568.149L99.5805 568.329L99.4009 568.509L99.2213 568.688L99.0418 568.868L98.8622 569.047L98.6826 569.227L98.503 569.406L98.3235 569.586L98.1439 569.766L97.9643 569.945L97.7847 570.125L97.6052 570.304L97.4256 570.484L97.246 570.664L97.0664 570.843L96.8868 571.023L96.7073 571.202L96.5277 571.382L96.3481 571.561L96.1685 571.741L95.989 571.921L95.8094 572.1L95.6298 572.28L95.4502 572.459L95.4502 572.459L95.2763 572.639L95.1135 572.818L94.962 572.998L94.8217 573.178L94.6926 573.357L94.5748 573.537L94.4682 573.716L94.3728 573.896L94.2886 574.075L94.2156 574.255L94.1539 574.435L94.1034 574.614L94.0641 574.794L94.0361 574.973L94.0192 575.153L94.0136 575.332L94.0192 575.512L94.0361 575.692L94.0641 575.871L94.1034 576.051L94.1539 576.23L94.2156 576.41L94.2886 576.59L94.3728 576.769L94.4682 576.949L94.5748 577.128L94.6926 577.308L94.8217 577.487L94.962 577.667L95.1135 577.847L95.2763 578.026L95.4502 578.206L95.4502 578.206L95.6305 578.386L95.8122 578.568L95.9953 578.751L96.1798 578.935L96.3657 579.121L96.5529 579.308L96.7416 579.497L96.9317 579.687L97.1232 579.879L97.3161 580.072L97.5105 580.266L97.7062 580.462L97.9033 580.659L98.1018 580.857L98.3017 581.057L98.503 581.259L98.7058 581.461L98.9099 581.665L99.1154 581.871L99.3224 582.078L99.5307 582.286L99.7404 582.496L99.9516 582.707L100.164 582.92L100.378 583.134L100.593 583.349L100.81 583.566L101.028 583.784L101.248 584.003L101.469 584.224L101.691 584.447L101.915 584.67L101.915 584.67L102.138 584.894L102.358 585.114L102.576 585.331L102.79 585.546L103.002 585.758L103.211 585.967L103.418 586.173L103.621 586.376L103.822 586.577L104.019 586.775L104.214 586.97L104.407 587.162L104.596 587.351L104.783 587.538L104.966 587.722L105.147 587.903L105.326 588.081L105.501 588.256L105.673 588.429L105.843 588.599L106.01 588.766L106.174 588.93L106.336 589.091L106.494 589.25L106.65 589.405L106.803 589.558L106.953 589.708L107.1 589.856L107.245 590L107.386 590.142L107.525 590.281L107.661 590.417L107.661 590.417L107.792 590.549L107.914 590.678L108.028 590.802L108.133 590.922L108.23 591.038L108.318 591.149L108.398 591.257L108.47 591.36L108.533 591.459L108.587 591.553L108.634 591.644L108.672 591.73L108.701 591.812L108.722 591.89L108.735 591.964L108.739 592.033L108.735 592.098L108.722 592.159L108.701 592.216L108.672 592.269L108.634 592.317L108.587 592.361L108.533 592.401L108.47 592.437L108.398 592.469L108.318 592.496L108.23 592.519L108.133 592.538L108.028 592.553L107.914 592.563L107.792 592.57L107.661 592.572L107.661 592.572L107.527 592.572L107.392 592.572L107.257 592.572L107.123 592.572L106.988 592.572L106.853 592.572L106.719 592.572L106.584 592.572L106.449 592.572L106.315 592.572L106.18 592.572L106.045 592.572L105.911 592.572L105.776 592.572L105.641 592.572L105.507 592.572L105.372 592.572L105.237 592.572L105.102 592.572L104.968 592.572L104.833 592.572L104.698 592.572L104.564 592.572L104.429 592.572L104.294 592.572L104.16 592.572L104.025 592.572L103.89 592.572L103.756 592.572L103.621 592.572L103.486 592.572L103.352 592.572L103.352 592.572L103.218 592.572L103.085 592.572L102.954 592.572L102.824 592.572L102.696 592.572L102.569 592.572L102.443 592.572L102.319 592.572L102.196 592.572L102.075 592.572L101.955 592.572L101.836 592.572L101.719 592.572L101.604 592.572L101.489 592.572L101.376 592.572L101.265 592.572L101.155 592.572L101.046 592.572L100.939 592.572L100.833 592.572L100.728 592.572L100.625 592.572L100.523 592.572L100.423 592.572L100.324 592.572L100.227 592.572L100.13 592.572L100.036 592.572L99.9425 592.572L99.8506 592.572L99.7601 592.572L99.7601 592.572L99.6703 592.57L99.5805 592.566L99.4907 592.559L99.4009 592.549L99.3111 592.537L99.2213 592.521L99.1316 592.503L99.0418 592.482L98.952 592.458L98.8622 592.432L98.7724 592.402L98.6826 592.37L98.5928 592.335L98.503 592.297L98.4132 592.256L98.3235 592.213L98.2337 592.166L98.1439 592.117L98.0541 592.065L97.9643 592.011L97.8745 591.953L97.7847 591.893L97.6949 591.83L97.6052 591.764L97.5154 591.695L97.4256 591.623L97.3358 591.549L97.246 591.472L97.1562 591.392L97.0664 591.309L96.9766 591.224L96.8868 591.135L96.8868 591.135L96.7971 591.045L96.7073 590.956L96.6175 590.866L96.5277 590.776L96.4379 590.686L96.3481 590.596L96.2583 590.507L96.1685 590.417L96.0788 590.327L95.989 590.237L95.8992 590.148L95.8094 590.058L95.7196 589.968L95.6298 589.878L95.54 589.788L95.4502 589.699L95.3604 589.609L95.2707 589.519L95.1809 589.429L95.0911 589.339L95.0013 589.25L94.9115 589.16L94.8217 589.07L94.7319 588.98L94.6421 588.891L94.5524 588.801L94.4626 588.711L94.3728 588.621L94.283 588.531L94.1932 588.442L94.1034 588.352L94.0136 588.262L94.0136 588.262L93.9224 588.171L93.8284 588.077L93.7316 587.98L93.632 587.88L93.5296 587.778L93.4244 587.673L93.3164 587.565L93.2055 587.454L93.0919 587.34L92.9754 587.224L92.8562 587.105L92.7341 586.983L92.6093 586.858L92.4816 586.73L92.3511 586.6L92.2179 586.466L92.0818 586.33L91.9429 586.191L91.8012 586.05L91.6567 585.905L91.5094 585.758L91.3593 585.608L91.2063 585.455L91.0506 585.299L90.8921 585.14L90.7307 584.979L90.5666 584.815L90.3997 584.648L90.2299 584.478L90.0573 584.306L89.882 584.13L89.7038 583.952L89.7038 583.952L89.5242 583.778L89.3446 583.615L89.1651 583.464L88.9855 583.324L88.8059 583.195L88.6263 583.077L88.4468 582.97L88.2672 582.875L88.0876 582.791L87.908 582.718L87.7285 582.656L87.5489 582.605L87.3693 582.566L87.1897 582.538L87.0101 582.521L86.8306 582.516L86.651 582.521L86.4714 582.538L86.2918 582.566L86.1123 582.605L85.9327 582.656L85.7531 582.718L85.5735 582.791L85.394 582.875L85.2144 582.97L85.0348 583.077L84.8552 583.195L84.6757 583.324L84.4961 583.464L84.3165 583.615L84.1369 583.778L83.9573 583.952L83.9573 583.952L83.7792 584.13L83.6038 584.306L83.4312 584.478L83.2615 584.648L83.0945 584.815L82.9304 584.979L82.7691 585.14L82.6105 585.299L82.4548 585.455L82.3019 585.608L82.1518 585.758L82.0045 585.905L81.8599 586.05L81.7183 586.191L81.5794 586.33L81.4433 586.466L81.31 586.6L81.1795 586.73L81.0519 586.858L80.927 586.983L80.8049 587.105L80.6857 587.224L80.5692 587.34L80.4556 587.454L80.3448 587.565L80.2367 587.673L80.1315 587.778L80.0291 587.88L79.9295 587.98L79.8327 588.077L79.7387 588.171L79.6475 588.262L79.6475 588.262L79.5577 588.352L79.4679 588.442L79.3781 588.531L79.2884 588.621L79.1986 588.711L79.1088 588.801L79.019 588.891L78.9292 588.98L78.8394 589.07L78.7496 589.16L78.6598 589.25L78.5701 589.339L78.4803 589.429L78.3905 589.519L78.3007 589.609L78.2109 589.699L78.1211 589.788L78.0313 589.878L77.9415 589.968L77.8517 590.058L77.762 590.148L77.6722 590.237L77.5824 590.327L77.4926 590.417L77.4028 590.507L77.313 590.596L77.2232 590.686L77.1334 590.776L77.0437 590.866L76.9539 590.956L76.8641 591.045L76.7743 591.135L76.7743 591.135L76.6845 591.224L76.5947 591.309L76.5049 591.392L76.4151 591.472L76.3253 591.549L76.2356 591.623L76.1458 591.695L76.056 591.764L75.9662 591.83L75.8764 591.893L75.7866 591.953L75.6968 592.011L75.607 592.065L75.5173 592.117L75.4275 592.166L75.3377 592.213L75.2479 592.256L75.1581 592.297L75.0683 592.335L74.9785 592.37L74.8887 592.402L74.7989 592.432L74.7092 592.458L74.6194 592.482L74.5296 592.503L74.4398 592.521L74.35 592.537L74.2602 592.549L74.1704 592.559L74.0806 592.566L73.9909 592.57L73.9011 592.572L73.9011 592.572L73.8106 592.572L73.7187 592.572L73.6254 592.572L73.5307 592.572L73.4346 592.572L73.3371 592.572L73.2382 592.572L73.1379 592.572L73.0362 592.572L72.933 592.572L72.8285 592.572L72.7226 592.572L72.6153 592.572L72.5065 592.572L72.3964 592.572L72.2849 592.572L72.1719 592.572L72.0576 592.572L71.9419 592.572L71.8247 592.572L71.7062 592.572L71.5862 592.572L71.4649 592.572L71.3421 592.572L71.2179 592.572L71.0924 592.572L70.9654 592.572L70.837 592.572L70.7073 592.572L70.5761 592.572L70.4435 592.572L70.3095 592.572L70.3095 592.572L70.1749 592.572L70.0402 592.572L69.9055 592.572L69.7708 592.572L69.6361 592.572L69.5014 592.572L69.3668 592.572L69.2321 592.572L69.0974 592.572L68.9627 592.572L68.828 592.572L68.6934 592.572L68.5587 592.572L68.424 592.572L68.2893 592.572L68.1546 592.572L68.0199 592.572L67.8853 592.572L67.7506 592.572L67.6159 592.572L67.4812 592.572L67.3465 592.572L67.2118 592.572L67.0772 592.572L66.9425 592.572L66.8078 592.572L66.6731 592.572L66.5384 592.572L66.4038 592.572L66.2691 592.572L66.1344 592.572L65.9997 592.572L65.9997 592.572L65.8692 592.57L65.7472 592.563L65.6335 592.553L65.5283 592.538L65.4315 592.519L65.3431 592.496L65.2632 592.469L65.1916 592.437L65.1285 592.401L65.0738 592.361L65.0275 592.317L64.9896 592.269L64.9601 592.216L64.9391 592.159L64.9265 592.098L64.9222 592.033L64.9265 591.964L64.9391 591.89L64.9601 591.812L64.9896 591.73L65.0275 591.644L65.0738 591.553L65.1285 591.459L65.1916 591.36L65.2632 591.257L65.3431 591.149L65.4315 591.038L65.5283 590.922L65.6335 590.802L65.7472 590.678L65.8692 590.549L65.9997 590.417L65.9997 590.417L66.1358 590.281L66.2747 590.142L66.4164 590L66.5609 589.856L66.7082 589.708L66.8583 589.558L67.0112 589.405L67.167 589.25L67.3255 589.091L67.4868 588.93L67.651 588.766L67.8179 588.599L67.9877 588.429L68.1602 588.256L68.3356 588.081L68.5138 587.903L68.6948 587.722L68.8785 587.538L69.0651 587.351L69.2545 587.162L69.4467 586.97L69.6417 586.775L69.8396 586.577L70.0402 586.376L70.2436 586.173L70.4498 585.967L70.6589 585.758L70.8707 585.546L71.0854 585.331L71.3028 585.114L71.5231 584.894L71.7461 584.67L71.7461 584.67L71.9699 584.447L72.1923 584.224L72.4132 584.003L72.6328 583.784L72.851 583.566L73.0677 583.349L73.2831 583.134L73.497 582.92L73.7096 582.707L73.9207 582.496L74.1304 582.286L74.3388 582.078L74.5457 581.871L74.7512 581.665L74.9554 581.461L75.1581 581.259L75.3594 581.057L75.5593 580.857L75.7579 580.659L75.955 580.462L76.1507 580.266L76.345 580.072L76.5379 579.879L76.7294 579.687L76.9195 579.497L77.1082 579.308L77.2955 579.121L77.4814 578.935L77.6659 578.751L77.8489 578.568L78.0306 578.386L78.2109 578.206L78.2109 578.206L78.3849 578.026L78.5476 577.847L78.6991 577.667L78.8394 577.487L78.9685 577.308L79.0863 577.128L79.193 576.949L79.2884 576.769L79.3725 576.59L79.4455 576.41L79.5072 576.23L79.5577 576.051L79.597 575.871L79.6251 575.692L79.6419 575.512L79.6475 575.332L79.6419 575.153L79.6251 574.973L79.597 574.794L79.5577 574.614L79.5072 574.435L79.4455 574.255L79.3725 574.075L79.2884 573.896L79.193 573.716L79.0863 573.537L78.9685 573.357L78.8394 573.178L78.6991 572.998L78.5476 572.818L78.3849 572.639L78.2109 572.459L78.2109 572.459L78.0306 572.279L77.8489 572.097L77.6659 571.914L77.4814 571.73L77.2955 571.544L77.1082 571.357L76.9195 571.168L76.7294 570.978L76.5379 570.786L76.345 570.593L76.1507 570.399L75.955 570.203L75.7579 570.006L75.5593 569.808L75.3594 569.608L75.1581 569.406L74.9554 569.204L74.7512 569L74.5457 568.794L74.3388 568.587L74.1304 568.379L73.9207 568.169L73.7096 567.958L73.497 567.745L73.2831 567.531L73.0677 567.316L72.851 567.099L72.6328 566.881L72.4132 566.662L72.1923 566.441L71.9699 566.218L71.7461 565.995L71.7461 565.995L71.5231 565.771L71.3028 565.551L71.0854 565.334L70.8707 565.119L70.6589 564.907L70.4498 564.698L70.2436 564.492L70.0402 564.289L69.8396 564.088L69.6417 563.89L69.4467 563.695L69.2545 563.503L69.0651 563.314L68.8785 563.127L68.6948 562.943L68.5138 562.762L68.3356 562.584L68.1602 562.409L67.9877 562.236L67.8179 562.066L67.651 561.899L67.4868 561.735L67.3255 561.574L67.167 561.415L67.0112 561.26L66.8583 561.107L66.7082 560.957L66.5609 560.809L66.4164 560.665L66.2747 560.523L66.1358 560.384L65.9997 560.248L65.9997 560.248L65.8692 560.115L65.7472 559.987L65.6335 559.863L65.5283 559.743L65.4315 559.627L65.3431 559.516L65.2632 559.408L65.1916 559.305L65.1285 559.206L65.0738 559.112L65.0275 559.021L64.9896 558.935L64.9601 558.853L64.9391 558.775L64.9265 558.701L64.9222 558.632L64.9265 558.567L64.9391 558.506L64.9601 558.449L64.9896 558.396L65.0275 558.348L65.0738 558.304L65.1285 558.264L65.1916 558.228L65.2632 558.196L65.3431 558.169L65.4315 558.146L65.5283 558.127L65.6335 558.112L65.7472 558.102L65.8692 558.095L65.9997 558.093L65.9997 558.093L66.1344 558.093L66.2691 558.093L66.4038 558.093L66.5384 558.093L66.6731 558.093L66.8078 558.093L66.9425 558.093L67.0772 558.093L67.2118 558.093L67.3465 558.093L67.4812 558.093L67.6159 558.093L67.7506 558.093L67.8853 558.093L68.0199 558.093L68.1546 558.093L68.2893 558.093L68.424 558.093L68.5587 558.093L68.6934 558.093L68.828 558.093L68.9627 558.093L69.0974 558.093L69.2321 558.093L69.3668 558.093L69.5014 558.093L69.6361 558.093L69.7708 558.093L69.9055 558.093L70.0402 558.093L70.1749 558.093L70.3095 558.093L70.3095 558.093L70.4435 558.093L70.5761 558.093L70.7073 558.093L70.837 558.093L70.9654 558.093L71.0924 558.093L71.2179 558.093L71.3421 558.093L71.4649 558.093L71.5862 558.093L71.7062 558.093L71.8247 558.093L71.9419 558.093L72.0576 558.093L72.1719 558.093L72.2849 558.093L72.3964 558.093L72.5065 558.093L72.6153 558.093L72.7226 558.093L72.8285 558.093L72.933 558.093L73.0362 558.093L73.1379 558.093L73.2382 558.093L73.3371 558.093L73.4346 558.093L73.5307 558.093L73.6254 558.093L73.7187 558.093L73.8106 558.093L73.9011 558.093L73.9011 558.093L73.9909 558.095L74.0806 558.099L74.1704 558.106L74.2602 558.116L74.35 558.128L74.4398 558.144L74.5296 558.162L74.6194 558.183L74.7092 558.207L74.7989 558.233L74.8887 558.263L74.9785 558.295L75.0683 558.33L75.1581 558.368L75.2479 558.409L75.3377 558.452L75.4275 558.499L75.5173 558.548L75.607 558.6L75.6968 558.654L75.7866 558.712L75.8764 558.772L75.9662 558.835L76.056 558.901L76.1458 558.97L76.2356 559.042L76.3253 559.116L76.4151 559.193L76.5049 559.273L76.5947 559.356L76.6845 559.441L76.7743 559.53L76.7743 559.53L76.8641 559.62L76.9539 559.709L77.0437 559.799L77.1334 559.889L77.2232 559.979L77.313 560.068L77.4028 560.158L77.4926 560.248L77.5824 560.338L77.6722 560.428L77.762 560.517L77.8517 560.607L77.9415 560.697L78.0313 560.787L78.1211 560.877L78.2109 560.966L78.3007 561.056L78.3905 561.146L78.4803 561.236L78.5701 561.326L78.6598 561.415L78.7496 561.505L78.8394 561.595L78.9292 561.685L79.019 561.774L79.1088 561.864L79.1986 561.954L79.2884 562.044L79.3781 562.134L79.4679 562.223L79.5577 562.313L79.6475 562.403L79.6475 562.403L79.7387 562.494L79.8327 562.588L79.9295 562.685L80.0291 562.785L80.1315 562.887L80.2367 562.992L80.3448 563.1L80.4556 563.211L80.5692 563.325L80.6857 563.441L80.8049 563.56L80.927 563.682L81.0519 563.807L81.1795 563.935L81.31 564.065L81.4433 564.199L81.5794 564.335L81.7183 564.474L81.8599 564.615L82.0045 564.76L82.1518 564.907L82.3019 565.057L82.4548 565.21L82.6105 565.366L82.7691 565.525L82.9304 565.686L83.0945 565.85L83.2615 566.017L83.4312 566.187L83.6038 566.359L83.7792 566.535L83.9573 566.713L83.9573 566.713L84.1369 566.887L84.3165 567.05L84.4961 567.201L84.6757 567.341L84.8552 567.47L85.0348 567.588L85.2144 567.695L85.394 567.79L85.5735 567.874L85.7531 567.947L85.9327 568.009L86.1123 568.06L86.2918 568.099L86.4714 568.127L86.651 568.144L86.8306 568.149L87.0101 568.144L87.1897 568.127L87.3693 568.099L87.5489 568.06L87.7285 568.009L87.908 567.947L88.0876 567.874L88.2672 567.79L88.4468 567.695L88.6263 567.588L88.8059 567.47L88.9855 567.341L89.1651 567.201L89.3446 567.05L89.5242 566.887L89.7038 566.713L89.7038 566.713L89.882 566.535L90.0573 566.359L90.2299 566.187L90.3997 566.017L90.5666 565.85L90.7307 565.686L90.8921 565.525L91.0506 565.366L91.2063 565.21L91.3593 565.057L91.5094 564.907L91.6567 564.76L91.8012 564.615L91.9429 564.474L92.0818 564.335L92.2179 564.199L92.3511 564.065L92.4816 563.935L92.6093 563.807L92.7341 563.682L92.8562 563.56L92.9754 563.441L93.0919 563.325L93.2055 563.211L93.3164 563.1L93.4244 562.992L93.5296 562.887L93.632 562.785L93.7316 562.685L93.8284 562.588L93.9224 562.494L94.0136 562.403L94.0136 562.403L94.1034 562.313L94.1932 562.223L94.283 562.134L94.3728 562.044L94.4626 561.954L94.5524 561.864L94.6421 561.774L94.7319 561.685L94.8217 561.595L94.9115 561.505L95.0013 561.415L95.0911 561.326L95.1809 561.236L95.2707 561.146L95.3604 561.056L95.4502 560.966L95.54 560.877L95.6298 560.787L95.7196 560.697L95.8094 560.607L95.8992 560.517L95.989 560.428L96.0788 560.338L96.1685 560.248L96.2583 560.158L96.3481 560.068L96.4379 559.979L96.5277 559.889L96.6175 559.799L96.7073 559.709L96.7971 559.62L96.8868 559.53L96.8868 559.53L96.9766 559.441L97.0664 559.356L97.1562 559.273L97.246 559.193L97.3358 559.116L97.4256 559.042L97.5154 558.97L97.6052 558.901L97.6949 558.835L97.7847 558.772L97.8745 558.712L97.9643 558.654L98.0541 558.6L98.1439 558.548L98.2337 558.499L98.3235 558.452L98.4132 558.409L98.503 558.368L98.5928 558.33L98.6826 558.295L98.7724 558.263L98.8622 558.233L98.952 558.207L99.0418 558.183L99.1316 558.162L99.2213 558.144L99.3111 558.128L99.4009 558.116L99.4907 558.106L99.5805 558.099L99.6703 558.095L99.7601 558.093L99.7601 558.093L99.8506 558.093L99.9425 558.093L100.036 558.093L100.13 558.093L100.227 558.093L100.324 558.093L100.423 558.093L100.523 558.093L100.625 558.093L100.728 558.093L100.833 558.093L100.939 558.093L101.046 558.093L101.155 558.093L101.265 558.093L101.376 558.093L101.489 558.093L101.604 558.093L101.719 558.093L101.836 558.093L101.955 558.093L102.075 558.093L102.196 558.093L102.319 558.093L102.443 558.093L102.569 558.093L102.696 558.093L102.824 558.093L102.954 558.093L103.085 558.093L103.218 558.093L103.352 558.093L103.352 558.093L103.486 558.093L103.621 558.093L103.756 558.093L103.89 558.093L104.025 558.093L104.16 558.093L104.294 558.093L104.429 558.093L104.564 558.093L104.698 558.093L104.833 558.093L104.968 558.093L105.102 558.093L105.237 558.093L105.372 558.093L105.507 558.093L105.641 558.093L105.776 558.093L105.911 558.093L106.045 558.093L106.18 558.093L106.315 558.093L106.449 558.093L106.584 558.093L106.719 558.093L106.853 558.093L106.988 558.093L107.123 558.093L107.257 558.093L107.392 558.093L107.527 558.093L107.661 558.093L107.661 558.093L107.792 558.095L107.914 558.102L108.028 558.112L108.133 558.127L108.23 558.146L108.318 558.169L108.398 558.196L108.47 558.228L108.533 558.264L108.587 558.304L108.634 558.348L108.672 558.396L108.701 558.449L108.722 558.506L108.735 558.567L108.739 558.632L108.735 558.701L108.722 558.775L108.701 558.853L108.672 558.935L108.634 559.021L108.587 559.112L108.533 559.206L108.47 559.305L108.398 559.408L108.318 559.516L108.23 559.627L108.133 559.743L108.028 559.863L107.914 559.987L107.792 560.115L107.661 560.248L107.661 560.248L107.525 560.385L107.384 560.526L107.238 560.671L107.089 560.82L106.935 560.974L106.778 561.132L106.616 561.294L106.449 561.46L106.279 561.631L106.104 561.805L105.925 561.984L105.742 562.167L105.555 562.355L105.363 562.546L105.168 562.742L104.968 562.942L104.764 563.146L104.555 563.354L104.343 563.567L104.126 563.783L103.905 564.004L103.68 564.23L103.451 564.459L103.217 564.693L102.979 564.93L102.737 565.172L102.491 565.419L102.24 565.669L101.986 565.924L101.727 566.183L101.464 566.446L101.197 566.713"/>
<path class="l5" d="M78.2109 448.911L80.0067 448.911"/>
<path class="l5" d="M86.1123 451.784L88.2672 448.911L86.1123 446.037L82.1616 446.037L80.0067 448.911L82.1616 451.784L86.1123 451.784"/>
<path class="l5" d="M77.4926 448.192L78.9292 448.192L78.9292 449.629L77.4926 449.629L77.4926 448.192z"/>
<path class="l5" d="M164.408 477.643L169.436 477.643"/>
<path class="l5" d="M174.464 477.643L172.309 474.77L167.281 474.77L169.436 477.643L167.281 480.516L172.309 480.516L174.464 477.643"/>
<path class="l5" d="M163.689 476.925L165.126 476.925L165.126 478.361L163.689 478.361L163.689 476.925z"/>
<path class="l5" d="M78.2109 466.15L80.0067 466.15"/>
<path class="l5" d="M86.1123 469.023L88.2672 466.15L86.1123 463.277L82.1616 463.277L80.0067 466.15L82.1616 469.023L86.1123 469.023"/>
<path class="l5" d="M77.4926 465.432L78.9292 465.432L78.9292 466.868L77.4926 466.868L77.4926 465.432z"/>
<path class="l5" d="M78.2109 431.671L80.0067 431.671"/>
<path class="l5" d="M86.1123 434.545L88.2672 431.671L86.1123 428.798L82.1616 428.798L80.0067 431.671L82.1616 434.545L86.1123 434.545"/>
<path class="l5" d="M77.4926 430.953L78.9292 430.953L78.9292 432.39L77.4926 432.39L77.4926 430.953z"/>
<path class="l5" d="M164.408 494.882L169.436 494.882"/>
<path class="l5" d="M174.464 494.882L172.309 492.009L167.281 492.009L169.436 494.882L167.281 497.755L172.309 497.755L174.464 494.882"/>
<path class="l5" d="M163.689 494.164L165.126 494.164L165.126 495.601L163.689 495.601L163.689 494.164z"/>
<path class="l5" d="M86.8306 500.629L89.7038 500.629"/>
<path class="l5" d="M86.8306 500.629L84.6757 497.755L79.6475 497.755L81.8024 500.629L79.6475 503.502L84.6757 503.502L86.8306 500.629"/>
<path class="l5" d="M88.9855 499.91L90.4221 499.91L90.4221 501.347L88.9855 501.347L88.9855 499.91z"/>
<path class="l5" d="M164.408 512.122L169.436 512.122"/>
<path class="l5" d="M174.464 512.122L172.309 509.248L167.281 509.248L169.436 512.122L167.281 514.995L172.309 514.995L174.464 512.122"/>
<path class="l5" d="M163.689 511.403L165.126 511.403L165.126 512.84L163.689 512.84L163.689 511.403z"/>
<path class="l5" d="M78.2109 483.389L80.0067 483.389"/>
<path class="l5" d="M86.1123 486.263L88.2672 483.389L86.1123 480.516L82.1616 480.516L80.0067 483.389L82.1616 486.263L86.1123 486.263"/>
<path class="l5" d="M77.4926 482.671L78.9292 482.671L78.9292 484.108L77.4926 484.108L77.4926 482.671z"/>
<path class="l5" d="M313.097 304.531L314.533 304.531L314.533 305.968L313.097 305.968L313.097 304.531z"/>
<path class="l5" d="M313.097 270.053L314.533 270.053L314.533 271.489L313.097 271.489L313.097 270.053z"/>
<path class="l5" d="M181.378 264.755L181.916 264.755L181.916 265.294L181.378 265.294L181.378 264.755z"/>
<path class="l5" d="M181.378 310.727L181.916 310.727L181.916 311.265L181.378 311.265L181.378 310.727z"/>
<path class="l5" d="M180.929 270.053L182.365 270.053L182.365 271.489L180.929 271.489L180.929 270.053z"/>
<path class="l5" d="M180.929 316.024L182.365 316.024L182.365 317.461L180.929 317.461L180.929 316.024z"/>
<path class="l5" d="M405.04 287.292L406.477 287.292L406.477 288.729L405.04 288.729L405.04 287.292z"/>
<path class="l5" d="M312.379 303.813L315.252 303.813L315.252 306.686L312.379 306.686L312.379 303.813z"/>
<path class="l5" d="M312.379 269.334L315.252 269.334L315.252 272.207L312.379 272.207L312.379 269.334z"/>
<path class="l5" d="M404.322 286.574L407.195 286.574L407.195 289.447L404.322 289.447L404.322 286.574z"/>
<path class="l5" d="M312.379 349.785L315.252 349.785L315.252 352.658L312.379 352.658L312.379 349.785z"/>
<path class="l5" d="M312.379 326.799L315.252 326.799L315.252 329.672L312.379 329.672L312.379 326.799z"/>
<path class="l5" d="M312.379 338.292L315.252 338.292L315.252 341.165L312.379 341.165L312.379 338.292z"/>
<path class="l5" d="M180.21 349.785L183.084 349.785L183.084 352.658L180.21 352.658L180.21 349.785z"/>
<path class="l5" d="M180.21 315.306L183.084 315.306L183.084 318.179L180.21 318.179L180.21 315.306z"/>
<path class="l5" d="M168.717 332.545L171.591 332.545L171.591 335.418L168.717 335.418L168.717 332.545z"/>
<path class="l5" d="M180.21 303.813L183.084 303.813L183.084 306.686L180.21 306.686L180.21 303.813z"/>
<path class="l5" d="M180.21 269.334L183.084 269.334L183.084 272.207L180.21 272.207L180.21 269.334z"/>
<path class="l5" d="M168.717 286.574L171.591 286.574L171.591 289.447L168.717 289.447L168.717 286.574z"/>
<path class="l5" d="M180.21 257.841L183.084 257.841L183.084 260.715L180.21 260.715L180.21 257.841z"/>
<path class="l5" d="M180.21 223.363L183.084 223.363L183.084 226.236L180.21 226.236L180.21 223.363z"/>
<path class="l5" d="M168.717 240.602L171.591 240.602L171.591 243.475L168.717 243.475L168.717 240.602z"/>
<path class="l5" d="M444.547 286.574L447.42 286.574L447.42 289.447L444.547 289.447L444.547 286.574z"/>
<path class="l5" d="M559.476 280.827L562.349 280.827L562.349 283.7L559.476 283.7L559.476 280.827z"/>
<path class="l5" d="M444.547 332.545L447.42 332.545L447.42 335.418L444.547 335.418L444.547 332.545z"/>
<path class="l5" d="M444.547 344.038L447.42 344.038L447.42 346.911L444.547 346.911L444.547 344.038z"/>
<path class="l5" d="M444.547 355.531L447.42 355.531L447.42 358.404L444.547 358.404L444.547 355.531z"/>
<path class="l5" d="M444.547 367.024L447.42 367.024L447.42 369.897L444.547 369.897L444.547 367.024z"/>
<path class="l5" d="M559.476 292.32L562.349 292.32L562.349 295.193L559.476 295.193L559.476 292.32z"/>
<path class="l5" d="M559.476 303.813L562.349 303.813L562.349 306.686L559.476 306.686L559.476 303.813z"/>
<path class="l5" d="M560.194 304.531L561.631 304.531L561.631 305.968L560.194 305.968L560.194 304.531z"/>
<path class="l5" d="M560.194 293.038L561.631 293.038L561.631 294.475L560.194 294.475L560.194 293.038z"/>
<path class="l5" d="M560.194 281.545L561.631 281.545L561.631 282.982L560.194 282.982L560.194 281.545z"/>
<path class="l5" d="M181.647 160.152L178.774 161.588L181.647 163.025L181.647 160.152"/>
<path class="l5" d="M180.21 142.912L183.084 142.912L183.084 145.786L180.21 145.786L180.21 142.912z"/>
<path class="l5" d="M157.225 160.152L160.098 160.152L160.098 163.025L157.225 163.025L157.225 160.152z"/>
<path class="l5" d="M180.21 177.391L183.084 177.391L183.084 180.264L180.21 180.264L180.21 177.391z"/>
<path class="l5" d="M181.602 161.544L181.692 161.544L181.692 161.633L181.602 161.633L181.602 161.544z"/>
<path class="l5" d="M301.604 327.517L303.041 327.517L303.041 328.954L301.604 328.954L301.604 327.517z"/>
<path class="l5" d="M313.097 339.01L314.533 339.01L314.533 340.447L313.097 340.447L313.097 339.01z"/>
<path class="l5" d="M445.265 367.742L446.702 367.742L446.702 369.179L445.265 369.179L445.265 367.742z"/>
<path class="l5" d="M445.265 356.249L446.702 356.249L446.702 357.686L445.265 357.686L445.265 356.249z"/>
<path class="l5" d="M445.265 333.263L446.702 333.263L446.702 334.7L445.265 334.7L445.265 333.263z"/>
<path class="l5" d="M180.929 109.152L182.365 109.152L182.365 110.589L180.929 110.589L180.929 109.152z"/>
<path class="l5" d="M313.097 350.503L314.533 350.503L314.533 351.939L313.097 351.939L313.097 350.503z"/>
<path class="l5" d="M445.265 344.756L446.702 344.756L446.702 346.193L445.265 346.193L445.265 344.756z"/>
<path class="l5" d="M175.182 361.996L176.619 361.996L176.619 363.432L175.182 363.432L175.182 361.996z"/>
<path class="l5" d="M198.168 160.87L199.605 160.87L199.605 162.307L198.168 162.307L198.168 160.87z"/>
<path class="l5" d="M180.929 195.349L182.365 195.349L182.365 196.785L180.929 196.785L180.929 195.349z"/>
<path class="l6" d="M236.238 575.332L693.081 575.332"/>
<path class="l6" d="M15 575.332L52.3519 575.332"/>
<path class="l15" d="M181.647 265.024L184.52 262.151"/>
<path class="l15" d="M181.647 310.996L184.52 308.123"/>
<path class="l1" d="M181.647 109.87L181.647 144.349"/>
<path class="l1" d="M181.647 161.588L198.886 161.588"/>
<path class="l1" d="M158.661 132.856L181.647 132.856"/>
<path class="l1" d="M158.661 132.856L158.661 161.588"/>
<path class="l1" d="M170.154 333.982L170.154 362.714"/>
<path class="l1" d="M170.154 362.714L181.647 362.714"/>
<path class="l1" d="M181.647 351.221L181.647 362.714"/>
<path class="l1" d="M181.647 259.278L181.647 270.771"/>
<path class="l1" d="M181.647 305.25L181.647 316.742"/>
<path class="l1" d="M170.154 288.01L170.154 333.982"/>
<path class="l1" d="M170.154 242.039L170.154 288.01"/>
<path class="l1" d="M285.083 305.25L313.815 305.25"/>
<path class="l1" d="M273.59 328.235L313.815 328.235"/>
<path class="l1" d="M405.758 288.01L445.983 288.01"/>
<path class="l1" d="M181.647 178.828L181.647 224.799"/>
<path class="l1" d="M285.083 270.771L313.815 270.771"/>
<circle class="l1" cx="181.647" cy="132.856" r="2.12618"/>
</svg>
